{
    "asset" : {
        "generator" : "Khronos glTF Blender I/O v1.8.19",
        "version" : "2.0"
    },
    "scene" : 0,
    "scenes" : [
        {
            "name" : "Scene",
            "nodes" : [
                7
            ]
        }
    ],
    "nodes" : [
        {
            "name" : "Spine",
            "translation" : [
                0,
                0.7200000286102295,
                0
            ]
        },
        {
            "name" : "Arm.L",
            "rotation" : [
                -2.6692541510442425e-08,
                -2.6692541510442425e-08,
                -0.7071068286895752,
                0.7071068286895752
            ],
            "translation" : [
                0.30000001192092896,
                0.5700000524520874,
                0
            ]
        },
        {
            "name" : "Arm.R",
            "rotation" : [
                -2.6692541510442425e-08,
                2.6692541510442425e-08,
                0.7071068286895752,
                0.7071068286895752
            ],
            "translation" : [
                -0.30000001192092896,
                0.5700000524520874,
                0
            ]
        },
        {
            "name" : "Hip.L",
            "rotation" : [
                -6.736402724527579e-08,
                -3.186673896358712e-15,
                1,
                0
            ],
            "translation" : [
                0.14999999105930328,
                0,
                0
            ]
        },
        {
            "name" : "Hip.R",
            "rotation" : [
                6.736402724527579e-08,
                -3.186673896358712e-15,
                1,
                0
            ],
            "translation" : [
                -0.14999999105930328,
                0,
                0
            ]
        },
        {
            "children" : [
                0,
                1,
                2,
                3,
                4
            ],
            "name" : "Root",
            "translation" : [
                0,
                0.6299999952316284,
                0
            ]
        },
        {
            "mesh" : 0,
            "name" : "Ludek",
            "skin" : 0
        },
        {
            "children" : [
                6,
                5
            ],
            "name" : "Armature"
        }
    ],
    "meshes" : [
        {
            "name" : "Ludek",
            "primitives" : [
                {
                    "attributes" : {
                        "POSITION" : 0,
                        "NORMAL" : 1,
                        "TEXCOORD_0" : 2,
                        "JOINTS_0" : 3,
                        "WEIGHTS_0" : 4
                    },
                    "indices" : 5
                }
            ]
        }
    ],
    "skins" : [
        {
            "inverseBindMatrices" : 6,
            "joints" : [
                5,
                0,
                1,
                2,
                3,
                4
            ],
            "name" : "Armature"
        }
    ],
    "accessors" : [
        {
            "bufferView" : 0,
            "componentType" : 5126,
            "count" : 53,
            "max" : [
                1.0499998331069946,
                2.249999523162842,
                0.44999992847442627
            ],
            "min" : [
                -1.0499998331069946,
                0,
                -0.1499999761581421
            ],
            "type" : "VEC3"
        },
        {
            "bufferView" : 1,
            "componentType" : 5126,
            "count" : 53,
            "type" : "VEC3"
        },
        {
            "bufferView" : 2,
            "componentType" : 5126,
            "count" : 53,
            "type" : "VEC2"
        },
        {
            "bufferView" : 3,
            "componentType" : 5121,
            "count" : 53,
            "type" : "VEC4"
        },
        {
            "bufferView" : 4,
            "componentType" : 5126,
            "count" : 53,
            "type" : "VEC4"
        },
        {
            "bufferView" : 5,
            "componentType" : 5123,
            "count" : 84,
            "type" : "SCALAR"
        },
        {
            "bufferView" : 6,
            "componentType" : 5126,
            "count" : 6,
            "type" : "MAT4"
        }
    ],
    "bufferViews" : [
        {
            "buffer" : 0,
            "byteLength" : 636,
            "byteOffset" : 0
        },
        {
            "buffer" : 0,
            "byteLength" : 636,
            "byteOffset" : 636
        },
        {
            "buffer" : 0,
            "byteLength" : 424,
            "byteOffset" : 1272
        },
        {
            "buffer" : 0,
            "byteLength" : 212,
            "byteOffset" : 1696
        },
        {
            "buffer" : 0,
            "byteLength" : 848,
            "byteOffset" : 1908
        },
        {
            "buffer" : 0,
            "byteLength" : 168,
            "byteOffset" : 2756
        },
        {
            "buffer" : 0,
            "byteLength" : 384,
            "byteOffset" : 2924
        }
    ],
    "buffers" : [
        {
            "byteLength" : 3308,
            "uri" : "data:application/octet-stream;base64,"
        }
    ]
}
