{
    "asset" : {
        "generator" : "Khronos glTF Blender I/O v1.8.19",
        "version" : "2.0"
    },
    "scene" : 0,
    "scenes" : [
        {
            "name" : "Scene",
            "nodes" : [
                0
            ]
        }
    ],
    "nodes" : [
        {
            "mesh" : 0,
            "name" : "Suzanne"
        }
    ],
    "meshes" : [
        {
            "name" : "Suzanne",
            "primitives" : [
                {
                    "attributes" : {
                        "POSITION" : 0,
                        "NORMAL" : 1,
                        "TEXCOORD_0" : 2
                    },
                    "indices" : 3
                }
            ]
        }
    ],
    "accessors" : [
        {
            "bufferView" : 0,
            "componentType" : 5126,
            "count" : 905,
            "max" : [
                0.8023443818092346,
                0.5793439745903015,
                0.5026462078094482
            ],
            "min" : [
                -0.8023443818092346,
                -0.5758306980133057,
                -0.501178503036499
            ],
            "type" : "VEC3"
        },
        {
            "bufferView" : 1,
            "componentType" : 5126,
            "count" : 905,
            "type" : "VEC3"
        },
        {
            "bufferView" : 2,
            "componentType" : 5126,
            "count" : 905,
            "type" : "VEC2"
        },
        {
            "bufferView" : 3,
            "componentType" : 5123,
            "count" : 1053,
            "type" : "SCALAR"
        }
    ],
    "bufferViews" : [
        {
            "buffer" : 0,
            "byteLength" : 10860,
            "byteOffset" : 0
        },
        {
            "buffer" : 0,
            "byteLength" : 10860,
            "byteOffset" : 10860
        },
        {
            "buffer" : 0,
            "byteLength" : 7240,
            "byteOffset" : 21720
        },
        {
            "buffer" : 0,
            "byteLength" : 2106,
            "byteOffset" : 28960
        }
    ],
    "buffers" : [
        {
            "byteLength" : 31068,
            "uri" : "data:application/octet-stream;base64,"
        }
    ]
}
