# Blender v2.92.0 OBJ File: 'icosphere_flat.blend'
# www.blender.org
v 0.000000 -0.500000 0.000000
v 0.380422 -0.223610 0.262863
v -0.145306 -0.223610 0.425325
v -0.470227 -0.223608 0.000000
v -0.145306 -0.223610 -0.425325
v 0.380422 -0.223610 -0.262863
v 0.145306 0.223610 0.425325
v -0.380422 0.223610 0.262863
v -0.380422 0.223610 -0.262863
v 0.145306 0.223610 -0.425325
v 0.470227 0.223608 0.000000
v 0.000000 0.500000 0.000000
v -0.085408 -0.425327 0.249998
v 0.223605 -0.425327 0.154506
v 0.138198 -0.262869 0.404506
v 0.447211 -0.262868 0.000000
v 0.223605 -0.425327 -0.154506
v -0.276392 -0.425326 0.000000
v -0.361802 -0.262868 0.249998
v -0.085408 -0.425327 -0.249998
v -0.361802 -0.262868 -0.249998
v 0.138198 -0.262869 -0.404506
v 0.500000 0.000000 0.154506
v 0.500000 0.000000 -0.154506
v 0.000000 0.000000 0.500000
v 0.309017 0.000000 0.404508
v -0.500000 0.000000 0.154506
v -0.309017 0.000000 0.404508
v -0.309017 0.000000 -0.404508
v -0.500000 0.000000 -0.154506
v 0.309017 0.000000 -0.404508
v 0.000000 0.000000 -0.500000
v 0.361802 0.262868 0.249998
v -0.138198 0.262869 0.404506
v -0.447211 0.262868 0.000000
v -0.138198 0.262869 -0.404506
v 0.361802 0.262868 -0.249998
v 0.085408 0.425327 0.249998
v 0.276392 0.425326 0.000000
v -0.223605 0.425327 0.154506
v -0.223605 0.425327 -0.154506
v 0.085408 0.425327 -0.249998
vt 0.998999 0.284713
vt 0.998999 0.144859
vt 0.859145 0.284713
vt 0.427570 0.141856
vt 0.427570 0.002002
vt 0.287716 0.141856
vt 0.284713 0.998999
vt 0.144859 0.998999
vt 0.284713 0.859145
vt 0.143858 0.858144
vt 0.143858 0.997998
vt 0.283712 0.858144
vt 0.858144 0.143858
vt 0.997998 0.143858
vt 0.858144 0.283712
vt 0.284713 0.570428
vt 0.144859 0.570428
vt 0.284713 0.430573
vt 0.570428 0.713285
vt 0.570428 0.573431
vt 0.430573 0.713285
vt 0.427570 0.713285
vt 0.427570 0.573431
vt 0.287716 0.713285
vt 0.713285 0.141856
vt 0.713285 0.002002
vt 0.573431 0.141856
vt 0.570428 0.427570
vt 0.570428 0.287716
vt 0.430573 0.427570
vt 0.284713 0.713285
vt 0.284713 0.573431
vt 0.144859 0.713285
vt 0.141856 0.713285
vt 0.002002 0.713285
vt 0.141856 0.573431
vt 0.427570 0.570428
vt 0.427570 0.430573
vt 0.287716 0.570428
vt 0.856142 0.141856
vt 0.856142 0.002002
vt 0.716288 0.141856
vt 0.713285 0.570428
vt 0.573431 0.570428
vt 0.713285 0.430573
vt 0.141856 0.998999
vt 0.141856 0.859145
vt 0.002002 0.998999
vt 0.141856 0.141856
vt 0.141856 0.002002
vt 0.002002 0.141856
vt 0.998999 0.141856
vt 0.859145 0.141856
vt 0.998999 0.002002
vt 0.713285 0.856142
vt 0.713285 0.716288
vt 0.573431 0.856142
vt 0.427570 0.427570
vt 0.287716 0.427570
vt 0.427570 0.287716
vt 0.856142 0.430573
vt 0.716288 0.570428
vt 0.856142 0.570428
vt 0.570428 0.856142
vt 0.430573 0.856142
vt 0.570428 0.716288
vt 0.001001 0.997998
vt 0.001001 0.858144
vt 0.140855 0.858144
vt 0.716288 0.856142
vt 0.856142 0.716288
vt 0.856142 0.856142
vt 0.856142 0.573431
vt 0.856142 0.713285
vt 0.716288 0.713285
vt 0.570428 0.002002
vt 0.570428 0.141856
vt 0.430573 0.141856
vt 0.284713 0.144859
vt 0.144859 0.284713
vt 0.284713 0.284713
vt 0.141856 0.427570
vt 0.141856 0.287716
vt 0.002002 0.427570
vt 0.997998 0.001001
vt 0.858144 0.001001
vt 0.858144 0.140855
vt 0.715287 0.855141
vt 0.855141 0.715287
vt 0.715287 0.715287
vt 0.855141 0.572430
vt 0.715287 0.572430
vt 0.715287 0.712284
vt 0.572430 0.855141
vt 0.572430 0.715287
vt 0.712284 0.715287
vt 0.855141 0.429572
vt 0.715287 0.569427
vt 0.715287 0.429572
vt 0.429572 0.855141
vt 0.569427 0.715287
vt 0.429572 0.715287
vt 0.002002 0.570428
vt 0.141856 0.570428
vt 0.141856 0.430573
vt 0.002002 0.856142
vt 0.141856 0.716288
vt 0.141856 0.856142
vt 0.713285 0.144859
vt 0.573431 0.284713
vt 0.713285 0.284713
vt 0.716288 0.284713
vt 0.856142 0.284713
vt 0.856142 0.144859
vt 0.144859 0.856142
vt 0.284713 0.716288
vt 0.284713 0.856142
vt 0.430573 0.570428
vt 0.570428 0.430573
vt 0.570428 0.570428
vt 0.287716 0.856142
vt 0.427570 0.856142
vt 0.427570 0.716288
vt 0.856142 0.287716
vt 0.716288 0.427570
vt 0.856142 0.427570
vt 0.430573 0.284713
vt 0.570428 0.284713
vt 0.570428 0.144859
vt 0.715287 0.426569
vt 0.715287 0.286715
vt 0.855141 0.286715
vt 0.426569 0.715287
vt 0.286715 0.855141
vt 0.286715 0.715287
vt 0.713285 0.573431
vt 0.573431 0.713285
vt 0.713285 0.713285
vt 0.283712 0.715287
vt 0.143858 0.715287
vt 0.143858 0.855141
vt 0.855141 0.143858
vt 0.715287 0.283712
vt 0.715287 0.143858
vt 0.573431 0.427570
vt 0.713285 0.287716
vt 0.713285 0.427570
vt 0.140855 0.715287
vt 0.001001 0.715287
vt 0.001001 0.855141
vt 0.715287 0.140855
vt 0.855141 0.001001
vt 0.715287 0.001001
vt 0.572430 0.712284
vt 0.572430 0.572430
vt 0.712284 0.572430
vt 0.429572 0.712284
vt 0.429572 0.572430
vt 0.569427 0.572430
vt 0.712284 0.429572
vt 0.572430 0.569427
vt 0.572430 0.429572
vt 0.712284 0.286715
vt 0.572430 0.286715
vt 0.572430 0.426569
vt 0.286715 0.712284
vt 0.286715 0.572430
vt 0.426569 0.572430
vt 0.143858 0.712284
vt 0.283712 0.572430
vt 0.143858 0.572430
vt 0.572430 0.283712
vt 0.572430 0.143858
vt 0.712284 0.143858
vt 0.572430 0.140855
vt 0.572430 0.001001
vt 0.712284 0.001001
vt 0.140855 0.572430
vt 0.001001 0.712284
vt 0.001001 0.572430
vt 0.569427 0.429572
vt 0.429572 0.429572
vt 0.429572 0.569427
vt 0.429572 0.426569
vt 0.429572 0.286715
vt 0.569427 0.286715
vt 0.286715 0.569427
vt 0.426569 0.429572
vt 0.286715 0.429572
vt 0.569427 0.143858
vt 0.429572 0.283712
vt 0.429572 0.143858
vt 0.283712 0.429572
vt 0.143858 0.429572
vt 0.143858 0.569427
vt 0.569427 0.001001
vt 0.429572 0.140855
vt 0.429572 0.001001
vt 0.002002 0.284713
vt 0.141856 0.144859
vt 0.141856 0.284713
vt 0.144859 0.141856
vt 0.284713 0.141856
vt 0.284713 0.002002
vt 0.287716 0.284713
vt 0.427570 0.144859
vt 0.427570 0.284713
vt 0.284713 0.287716
vt 0.284713 0.427570
vt 0.144859 0.427570
vt 0.001001 0.569427
vt 0.001001 0.429572
vt 0.140855 0.429572
vt 0.286715 0.426569
vt 0.426569 0.286715
vt 0.286715 0.286715
vt 0.143858 0.286715
vt 0.143858 0.426569
vt 0.283712 0.286715
vt 0.426569 0.143858
vt 0.286715 0.143858
vt 0.286715 0.283712
vt 0.426569 0.001001
vt 0.286715 0.140855
vt 0.286715 0.001001
vt 0.001001 0.426569
vt 0.001001 0.286715
vt 0.140855 0.286715
vt 0.143858 0.283712
vt 0.143858 0.143858
vt 0.283712 0.143858
vt 0.283712 0.001001
vt 0.143858 0.140855
vt 0.143858 0.001001
vt 0.001001 0.283712
vt 0.140855 0.143858
vt 0.001001 0.143858
vt 0.140855 0.001001
vt 0.001001 0.001001
vt 0.001001 0.140855
vn 0.0974 -0.9440 0.3152
vn 0.6821 -0.6778 0.2745
vn -0.2558 -0.9468 0.1954
vn -0.2558 -0.9468 -0.1954
vn 0.0974 -0.9440 -0.3152
vn 0.8965 -0.3441 0.2792
vn 0.0235 -0.3304 0.9435
vn -0.8801 -0.3436 0.3277
vn -0.5553 -0.3357 -0.7609
vn 0.5155 -0.3350 -0.7887
vn 0.7879 -0.1297 0.6019
vn -0.2929 -0.1262 0.9478
vn -0.9913 -0.1320 0.0000
vn -0.2929 -0.1262 -0.9478
vn 0.7879 -0.1297 -0.6019
vn 0.3921 0.6670 0.6335
vn -0.4531 0.6688 0.5894
vn -0.6821 0.6778 -0.2745
vn 0.0366 0.6617 -0.7488
vn 0.7065 0.6789 -0.1998
vn 0.2558 0.9468 -0.1954
vn 0.4726 0.8040 -0.3610
vn 0.3921 0.6670 -0.6335
vn -0.0974 0.9440 -0.3152
vn -0.1787 0.7960 -0.5783
vn -0.4531 0.6688 -0.5894
vn -0.3168 0.9485 0.0000
vn -0.5878 0.8090 0.0000
vn -0.6821 0.6778 0.2745
vn -0.0974 0.9440 0.3152
vn -0.1787 0.7960 0.5783
vn 0.0366 0.6617 0.7488
vn 0.2558 0.9468 0.1954
vn 0.4726 0.8040 0.3610
vn 0.7065 0.6789 0.1998
vn 0.8801 0.3436 -0.3277
vn 0.7796 0.1935 -0.5956
vn 0.5553 0.3357 -0.7609
vn -0.0235 0.3304 -0.9435
vn -0.2900 0.1884 -0.9383
vn -0.5155 0.3350 -0.7887
vn -0.8965 0.3441 -0.2792
vn -0.9804 0.1969 0.0000
vn -0.8965 0.3441 0.2792
vn -0.5155 0.3350 0.7887
vn -0.2900 0.1884 0.9383
vn -0.0235 0.3304 0.9435
vn 0.5553 0.3357 0.7609
vn 0.7796 0.1935 0.5956
vn 0.8801 0.3436 0.3277
vn 0.2929 0.1262 -0.9478
vn 0.2900 -0.1884 -0.9383
vn 0.0235 -0.3304 -0.9435
vn -0.7879 0.1297 -0.6019
vn -0.7796 -0.1935 -0.5956
vn -0.8801 -0.3436 -0.3277
vn -0.7879 0.1297 0.6019
vn -0.7796 -0.1935 0.5956
vn -0.5553 -0.3357 0.7609
vn 0.2929 0.1262 0.9478
vn 0.2900 -0.1884 0.9383
vn 0.5155 -0.3350 0.7887
vn 0.9913 0.1320 0.0000
vn 0.9804 -0.1969 0.0000
vn 0.8965 -0.3441 -0.2792
vn 0.4531 -0.6688 -0.5894
vn 0.1787 -0.7960 -0.5783
vn -0.0366 -0.6617 -0.7488
vn -0.3921 -0.6670 -0.6335
vn -0.4726 -0.8040 -0.3610
vn -0.7065 -0.6789 -0.1998
vn -0.7065 -0.6789 0.1998
vn -0.4726 -0.8040 0.3610
vn -0.3921 -0.6670 0.6335
vn 0.6821 -0.6778 -0.2745
vn 0.5878 -0.8090 0.0000
vn 0.3168 -0.9485 0.0000
vn -0.0366 -0.6617 0.7488
vn 0.1787 -0.7960 0.5783
vn 0.4531 -0.6688 0.5894
s off
f 1/1/1 14/2/1 13/3/1
f 2/4/2 14/5/2 16/6/2
f 1/7/3 13/8/3 18/9/3
f 1/10/4 18/11/4 20/12/4
f 1/13/5 20/14/5 17/15/5
f 2/16/6 16/17/6 23/18/6
f 3/19/7 15/20/7 25/21/7
f 4/22/8 19/23/8 27/24/8
f 5/25/9 21/26/9 29/27/9
f 6/28/10 22/29/10 31/30/10
f 2/31/11 23/32/11 26/33/11
f 3/34/12 25/35/12 28/36/12
f 4/37/13 27/38/13 30/39/13
f 5/40/14 29/41/14 32/42/14
f 6/43/15 31/44/15 24/45/15
f 7/46/16 33/47/16 38/48/16
f 8/49/17 34/50/17 40/51/17
f 9/52/18 35/53/18 41/54/18
f 10/55/19 36/56/19 42/57/19
f 11/58/20 37/59/20 39/60/20
f 39/61/21 42/62/21 12/63/21
f 39/64/22 37/65/22 42/66/22
f 37/67/23 10/68/23 42/69/23
f 42/70/24 41/71/24 12/72/24
f 42/73/25 36/74/25 41/75/25
f 36/76/26 9/77/26 41/78/26
f 41/79/27 40/80/27 12/81/27
f 41/82/28 35/83/28 40/84/28
f 35/85/29 8/86/29 40/87/29
f 40/88/30 38/89/30 12/90/30
f 40/91/31 34/92/31 38/93/31
f 34/94/32 7/95/32 38/96/32
f 38/97/33 39/98/33 12/99/33
f 38/100/34 33/101/34 39/102/34
f 33/103/35 11/104/35 39/105/35
f 24/106/36 37/107/36 11/108/36
f 24/109/37 31/110/37 37/111/37
f 31/112/38 10/113/38 37/114/38
f 32/115/39 36/116/39 10/117/39
f 32/118/40 29/119/40 36/120/40
f 29/121/41 9/122/41 36/123/41
f 30/124/42 35/125/42 9/126/42
f 30/127/43 27/128/43 35/129/43
f 27/130/44 8/131/44 35/132/44
f 28/133/45 34/134/45 8/135/45
f 28/136/46 25/137/46 34/138/46
f 25/139/47 7/140/47 34/141/47
f 26/142/48 33/143/48 7/144/48
f 26/145/49 23/146/49 33/147/49
f 23/148/50 11/149/50 33/150/50
f 31/151/51 32/152/51 10/153/51
f 31/154/52 22/155/52 32/156/52
f 22/157/53 5/158/53 32/159/53
f 29/160/54 30/161/54 9/162/54
f 29/163/55 21/164/55 30/165/55
f 21/166/56 4/167/56 30/168/56
f 27/169/57 28/170/57 8/171/57
f 27/172/58 19/173/58 28/174/58
f 19/175/59 3/176/59 28/177/59
f 25/178/60 26/179/60 7/180/60
f 25/181/61 15/182/61 26/183/61
f 15/184/62 2/185/62 26/186/62
f 23/187/63 24/188/63 11/189/63
f 23/190/64 16/191/64 24/192/64
f 16/193/65 6/194/65 24/195/65
f 17/196/66 22/197/66 6/198/66
f 17/199/67 20/200/67 22/201/67
f 20/202/68 5/203/68 22/204/68
f 20/205/69 21/206/69 5/207/69
f 20/208/70 18/209/70 21/210/70
f 18/211/71 4/212/71 21/213/71
f 18/214/72 19/215/72 4/216/72
f 18/217/73 13/218/73 19/219/73
f 13/220/74 3/221/74 19/222/74
f 16/223/75 17/224/75 6/225/75
f 16/226/76 14/227/76 17/228/76
f 14/229/77 1/230/77 17/231/77
f 13/232/78 15/233/78 3/234/78
f 13/235/79 14/236/79 15/237/79
f 14/238/80 2/239/80 15/240/80
