# Blender v2.92.0 OBJ File: 'icosphere_smooth.blend'
# www.blender.org
v 0.000000 -0.500000 0.000000
v 0.380422 -0.223610 0.262863
v -0.145306 -0.223610 0.425325
v -0.470227 -0.223608 0.000000
v -0.145306 -0.223610 -0.425325
v 0.380422 -0.223610 -0.262863
v 0.145306 0.223610 0.425325
v -0.380422 0.223610 0.262863
v -0.380422 0.223610 -0.262863
v 0.145306 0.223610 -0.425325
v 0.470227 0.223608 0.000000
v 0.000000 0.500000 0.000000
v -0.085408 -0.425327 0.249998
v 0.223605 -0.425327 0.154506
v 0.138198 -0.262869 0.404506
v 0.447211 -0.262868 0.000000
v 0.223605 -0.425327 -0.154506
v -0.276392 -0.425326 0.000000
v -0.361802 -0.262868 0.249998
v -0.085408 -0.425327 -0.249998
v -0.361802 -0.262868 -0.249998
v 0.138198 -0.262869 -0.404506
v 0.500000 0.000000 0.154506
v 0.500000 0.000000 -0.154506
v 0.000000 0.000000 0.500000
v 0.309017 0.000000 0.404508
v -0.500000 0.000000 0.154506
v -0.309017 0.000000 0.404508
v -0.309017 0.000000 -0.404508
v -0.500000 0.000000 -0.154506
v 0.309017 0.000000 -0.404508
v 0.000000 0.000000 -0.500000
v 0.361802 0.262868 0.249998
v -0.138198 0.262869 0.404506
v -0.447211 0.262868 0.000000
v -0.138198 0.262869 -0.404506
v 0.361802 0.262868 -0.249998
v 0.085408 0.425327 0.249998
v 0.276392 0.425326 0.000000
v -0.223605 0.425327 0.154506
v -0.223605 0.425327 -0.154506
v 0.085408 0.425327 -0.249998
vt 0.998999 0.284713
vt 0.998999 0.144859
vt 0.859145 0.284713
vt 0.427570 0.141856
vt 0.427570 0.002002
vt 0.287716 0.141856
vt 0.284713 0.998999
vt 0.144859 0.998999
vt 0.284713 0.859145
vt 0.143858 0.858144
vt 0.143858 0.997998
vt 0.283712 0.858144
vt 0.858144 0.143858
vt 0.997998 0.143858
vt 0.858144 0.283712
vt 0.284713 0.570428
vt 0.144859 0.570428
vt 0.284713 0.430573
vt 0.570428 0.713285
vt 0.570428 0.573431
vt 0.430573 0.713285
vt 0.427570 0.713285
vt 0.427570 0.573431
vt 0.287716 0.713285
vt 0.713285 0.141856
vt 0.713285 0.002002
vt 0.573431 0.141856
vt 0.570428 0.427570
vt 0.570428 0.287716
vt 0.430573 0.427570
vt 0.284713 0.713285
vt 0.284713 0.573431
vt 0.144859 0.713285
vt 0.141856 0.713285
vt 0.002002 0.713285
vt 0.141856 0.573431
vt 0.427570 0.570428
vt 0.427570 0.430573
vt 0.287716 0.570428
vt 0.856142 0.141856
vt 0.856142 0.002002
vt 0.716288 0.141856
vt 0.713285 0.570428
vt 0.573431 0.570428
vt 0.713285 0.430573
vt 0.141856 0.998999
vt 0.141856 0.859145
vt 0.002002 0.998999
vt 0.141856 0.141856
vt 0.141856 0.002002
vt 0.002002 0.141856
vt 0.998999 0.141856
vt 0.859145 0.141856
vt 0.998999 0.002002
vt 0.713285 0.856142
vt 0.713285 0.716288
vt 0.573431 0.856142
vt 0.427570 0.427570
vt 0.287716 0.427570
vt 0.427570 0.287716
vt 0.856142 0.430573
vt 0.716288 0.570428
vt 0.856142 0.570428
vt 0.570428 0.856142
vt 0.430573 0.856142
vt 0.570428 0.716288
vt 0.001001 0.997998
vt 0.001001 0.858144
vt 0.140855 0.858144
vt 0.716288 0.856142
vt 0.856142 0.716288
vt 0.856142 0.856142
vt 0.856142 0.573431
vt 0.856142 0.713285
vt 0.716288 0.713285
vt 0.570428 0.002002
vt 0.570428 0.141856
vt 0.430573 0.141856
vt 0.284713 0.144859
vt 0.144859 0.284713
vt 0.284713 0.284713
vt 0.141856 0.427570
vt 0.141856 0.287716
vt 0.002002 0.427570
vt 0.997998 0.001001
vt 0.858144 0.001001
vt 0.858144 0.140855
vt 0.715287 0.855141
vt 0.855141 0.715287
vt 0.715287 0.715287
vt 0.855141 0.572430
vt 0.715287 0.572430
vt 0.715287 0.712284
vt 0.572430 0.855141
vt 0.572430 0.715287
vt 0.712284 0.715287
vt 0.855141 0.429572
vt 0.715287 0.569427
vt 0.715287 0.429572
vt 0.429572 0.855141
vt 0.569427 0.715287
vt 0.429572 0.715287
vt 0.002002 0.570428
vt 0.141856 0.570428
vt 0.141856 0.430573
vt 0.002002 0.856142
vt 0.141856 0.716288
vt 0.141856 0.856142
vt 0.713285 0.144859
vt 0.573431 0.284713
vt 0.713285 0.284713
vt 0.716288 0.284713
vt 0.856142 0.284713
vt 0.856142 0.144859
vt 0.144859 0.856142
vt 0.284713 0.716288
vt 0.284713 0.856142
vt 0.430573 0.570428
vt 0.570428 0.430573
vt 0.570428 0.570428
vt 0.287716 0.856142
vt 0.427570 0.856142
vt 0.427570 0.716288
vt 0.856142 0.287716
vt 0.716288 0.427570
vt 0.856142 0.427570
vt 0.430573 0.284713
vt 0.570428 0.284713
vt 0.570428 0.144859
vt 0.715287 0.426569
vt 0.715287 0.286715
vt 0.855141 0.286715
vt 0.426569 0.715287
vt 0.286715 0.855141
vt 0.286715 0.715287
vt 0.713285 0.573431
vt 0.573431 0.713285
vt 0.713285 0.713285
vt 0.283712 0.715287
vt 0.143858 0.715287
vt 0.143858 0.855141
vt 0.855141 0.143858
vt 0.715287 0.283712
vt 0.715287 0.143858
vt 0.573431 0.427570
vt 0.713285 0.287716
vt 0.713285 0.427570
vt 0.140855 0.715287
vt 0.001001 0.715287
vt 0.001001 0.855141
vt 0.715287 0.140855
vt 0.855141 0.001001
vt 0.715287 0.001001
vt 0.572430 0.712284
vt 0.572430 0.572430
vt 0.712284 0.572430
vt 0.429572 0.712284
vt 0.429572 0.572430
vt 0.569427 0.572430
vt 0.712284 0.429572
vt 0.572430 0.569427
vt 0.572430 0.429572
vt 0.712284 0.286715
vt 0.572430 0.286715
vt 0.572430 0.426569
vt 0.286715 0.712284
vt 0.286715 0.572430
vt 0.426569 0.572430
vt 0.143858 0.712284
vt 0.283712 0.572430
vt 0.143858 0.572430
vt 0.572430 0.283712
vt 0.572430 0.143858
vt 0.712284 0.143858
vt 0.572430 0.140855
vt 0.572430 0.001001
vt 0.712284 0.001001
vt 0.140855 0.572430
vt 0.001001 0.712284
vt 0.001001 0.572430
vt 0.569427 0.429572
vt 0.429572 0.429572
vt 0.429572 0.569427
vt 0.429572 0.426569
vt 0.429572 0.286715
vt 0.569427 0.286715
vt 0.286715 0.569427
vt 0.426569 0.429572
vt 0.286715 0.429572
vt 0.569427 0.143858
vt 0.429572 0.283712
vt 0.429572 0.143858
vt 0.283712 0.429572
vt 0.143858 0.429572
vt 0.143858 0.569427
vt 0.569427 0.001001
vt 0.429572 0.140855
vt 0.429572 0.001001
vt 0.002002 0.284713
vt 0.141856 0.144859
vt 0.141856 0.284713
vt 0.144859 0.141856
vt 0.284713 0.141856
vt 0.284713 0.002002
vt 0.287716 0.284713
vt 0.427570 0.144859
vt 0.427570 0.284713
vt 0.284713 0.287716
vt 0.284713 0.427570
vt 0.144859 0.427570
vt 0.001001 0.569427
vt 0.001001 0.429572
vt 0.140855 0.429572
vt 0.286715 0.426569
vt 0.426569 0.286715
vt 0.286715 0.286715
vt 0.143858 0.286715
vt 0.143858 0.426569
vt 0.283712 0.286715
vt 0.426569 0.143858
vt 0.286715 0.143858
vt 0.286715 0.283712
vt 0.426569 0.001001
vt 0.286715 0.140855
vt 0.286715 0.001001
vt 0.001001 0.426569
vt 0.001001 0.286715
vt 0.140855 0.286715
vt 0.143858 0.283712
vt 0.143858 0.143858
vt 0.283712 0.143858
vt 0.283712 0.001001
vt 0.143858 0.140855
vt 0.143858 0.001001
vt 0.001001 0.283712
vt 0.140855 0.143858
vt 0.001001 0.143858
vt 0.140855 0.001001
vt 0.001001 0.001001
vt 0.001001 0.140855
vn 0.0000 -1.0000 0.0000
vn 0.4115 -0.8568 0.3107
vn -0.1564 -0.8515 0.5004
vn 0.7095 -0.4566 0.5367
vn 0.8415 -0.5402 0.0000
vn -0.5101 -0.8601 0.0000
vn -0.1564 -0.8515 -0.5004
vn 0.4115 -0.8568 -0.3107
vn 0.9474 -0.0004 0.3199
vn -0.2662 -0.4485 0.8532
vn 0.2529 -0.5271 0.8113
vn 0.0000 0.0000 1.0000
vn -0.8870 -0.4617 0.0000
vn -0.6736 -0.5351 0.5098
vn -0.9474 0.0004 0.3199
vn -0.2662 -0.4485 -0.8532
vn -0.6736 -0.5351 -0.5098
vn -0.5727 -0.0005 -0.8197
vn 0.7095 -0.4566 -0.5367
vn 0.2529 -0.5271 -0.8113
vn 0.5727 0.0005 -0.8197
vn 0.5727 0.0005 0.8197
vn -0.5727 -0.0005 0.8197
vn -0.9474 0.0004 -0.3199
vn 0.0000 0.0000 -1.0000
vn 0.9474 -0.0004 -0.3199
vn 0.2662 0.4485 0.8532
vn 0.6736 0.5351 0.5098
vn 0.1564 0.8515 0.5004
vn -0.7095 0.4566 0.5367
vn -0.2529 0.5271 0.8113
vn -0.4115 0.8568 0.3107
vn -0.7095 0.4566 -0.5367
vn -0.8415 0.5402 0.0000
vn -0.4115 0.8568 -0.3107
vn 0.2662 0.4485 -0.8532
vn -0.2529 0.5271 -0.8113
vn 0.1564 0.8515 -0.5004
vn 0.8870 0.4617 0.0000
vn 0.6736 0.5351 -0.5098
vn 0.5101 0.8601 0.0000
vn -0.0000 1.0000 0.0000
s 1
f 1/1/1 14/2/2 13/3/3
f 2/4/4 14/5/2 16/6/5
f 1/7/1 13/8/3 18/9/6
f 1/10/1 18/11/6 20/12/7
f 1/13/1 20/14/7 17/15/8
f 2/16/4 16/17/5 23/18/9
f 3/19/10 15/20/11 25/21/12
f 4/22/13 19/23/14 27/24/15
f 5/25/16 21/26/17 29/27/18
f 6/28/19 22/29/20 31/30/21
f 2/31/4 23/32/9 26/33/22
f 3/34/10 25/35/12 28/36/23
f 4/37/13 27/38/15 30/39/24
f 5/40/16 29/41/18 32/42/25
f 6/43/19 31/44/21 24/45/26
f 7/46/27 33/47/28 38/48/29
f 8/49/30 34/50/31 40/51/32
f 9/52/33 35/53/34 41/54/35
f 10/55/36 36/56/37 42/57/38
f 11/58/39 37/59/40 39/60/41
f 39/61/41 42/62/38 12/63/42
f 39/64/41 37/65/40 42/66/38
f 37/67/40 10/68/36 42/69/38
f 42/70/38 41/71/35 12/72/42
f 42/73/38 36/74/37 41/75/35
f 36/76/37 9/77/33 41/78/35
f 41/79/35 40/80/32 12/81/42
f 41/82/35 35/83/34 40/84/32
f 35/85/34 8/86/30 40/87/32
f 40/88/32 38/89/29 12/90/42
f 40/91/32 34/92/31 38/93/29
f 34/94/31 7/95/27 38/96/29
f 38/97/29 39/98/41 12/99/42
f 38/100/29 33/101/28 39/102/41
f 33/103/28 11/104/39 39/105/41
f 24/106/26 37/107/40 11/108/39
f 24/109/26 31/110/21 37/111/40
f 31/112/21 10/113/36 37/114/40
f 32/115/25 36/116/37 10/117/36
f 32/118/25 29/119/18 36/120/37
f 29/121/18 9/122/33 36/123/37
f 30/124/24 35/125/34 9/126/33
f 30/127/24 27/128/15 35/129/34
f 27/130/15 8/131/30 35/132/34
f 28/133/23 34/134/31 8/135/30
f 28/136/23 25/137/12 34/138/31
f 25/139/12 7/140/27 34/141/31
f 26/142/22 33/143/28 7/144/27
f 26/145/22 23/146/9 33/147/28
f 23/148/9 11/149/39 33/150/28
f 31/151/21 32/152/25 10/153/36
f 31/154/21 22/155/20 32/156/25
f 22/157/20 5/158/16 32/159/25
f 29/160/18 30/161/24 9/162/33
f 29/163/18 21/164/17 30/165/24
f 21/166/17 4/167/13 30/168/24
f 27/169/15 28/170/23 8/171/30
f 27/172/15 19/173/14 28/174/23
f 19/175/14 3/176/10 28/177/23
f 25/178/12 26/179/22 7/180/27
f 25/181/12 15/182/11 26/183/22
f 15/184/11 2/185/4 26/186/22
f 23/187/9 24/188/26 11/189/39
f 23/190/9 16/191/5 24/192/26
f 16/193/5 6/194/19 24/195/26
f 17/196/8 22/197/20 6/198/19
f 17/199/8 20/200/7 22/201/20
f 20/202/7 5/203/16 22/204/20
f 20/205/7 21/206/17 5/207/16
f 20/208/7 18/209/6 21/210/17
f 18/211/6 4/212/13 21/213/17
f 18/214/6 19/215/14 4/216/13
f 18/217/6 13/218/3 19/219/14
f 13/220/3 3/221/10 19/222/14
f 16/223/5 17/224/8 6/225/19
f 16/226/5 14/227/2 17/228/8
f 14/229/2 1/230/1 17/231/8
f 13/232/3 15/233/11 3/234/10
f 13/235/3 14/236/2 15/237/11
f 14/238/2 2/239/4 15/240/11
