# Blender v2.93.0 OBJ File: 'ludek.blend'
# www.blender.org
v -0.270000 0.630000 0.000000
v 0.270000 0.630000 0.000000
v -0.300000 1.200000 -0.150000
v 0.300000 1.200000 -0.150000
v -0.450000 1.470000 0.000000
v 0.450000 1.470000 0.000000
v 0.300000 1.200000 0.150000
v 1.050000 1.350000 0.000000
v -0.300000 1.200000 0.150000
v -1.050000 1.350000 0.000000
v 0.000000 0.630000 -0.150000
v 0.000000 2.250000 -0.150000
v 0.150000 0.000000 0.000000
v -0.150000 0.000000 0.000000
v 0.000000 0.630000 0.150000
v 0.000000 2.250000 0.450000
v 0.000000 2.250000 -0.150000
v 0.000000 2.250000 -0.150000
v -0.450000 1.470000 0.000000
v -0.450000 1.470000 0.000000
v -0.450000 1.470000 0.000000
v -0.450000 1.470000 0.000000
v 1.050000 1.350000 0.000000
v 1.050000 1.350000 0.000000
v 0.450000 1.470000 0.000000
v 0.450000 1.470000 0.000000
v 0.450000 1.470000 0.000000
v 0.450000 1.470000 0.000000
v -1.050000 1.350000 0.000000
v -1.050000 1.350000 0.000000
v 0.000000 0.630000 -0.150000
v 0.000000 0.630000 -0.150000
v 0.150000 0.000000 0.000000
v 0.150000 0.000000 0.000000
v -0.150000 0.000000 0.000000
v -0.150000 0.000000 0.000000
v 0.000000 0.630000 0.150000
v 0.000000 0.630000 0.150000
v 0.000000 2.250000 0.450000
v 0.000000 2.250000 0.450000
vt 0.263835 0.413572
vt 0.018468 0.349974
vt 0.105534 0.303621
vt 0.545919 0.548681
vt 0.629887 0.530965
vt 0.623806 0.748455
vt 0.512776 0.812615
vt 0.588341 0.748455
vt 0.588341 0.999648
vt 0.588341 0.935182
vt 0.663705 0.748455
vt 0.663705 1.000000
vt 0.437210 0.589106
vt 0.255920 0.514901
vt 0.717104 0.231542
vt 0.687404 0.328136
vt 0.500808 0.367506
vt 0.512776 0.999648
vt 0.437211 0.935488
vt 0.512776 0.748455
vt 0.213706 0.153233
vt 0.358060 0.000000
vt 0.284942 0.202711
vt 0.437211 0.054976
vt 0.356177 0.252189
vt 0.713855 0.513248
vt 0.717104 0.728770
vt 0.812306 0.232832
vt 0.905658 0.000000
vt 0.905658 0.252234
vt 0.904799 0.499571
vt 0.904799 0.708428
vt 0.812306 0.684996
vt 0.190403 0.914462
vt 0.285604 0.645756
vt 0.380806 0.914462
vt 0.717104 0.593976
vt 0.812306 0.780472
vt 0.717104 0.780472
vt 0.859907 0.252234
vt 0.907507 0.499571
vt 0.812306 0.499571
vt 0.812306 0.893854
vt 0.904799 0.708428
vt 0.904799 0.917286
vt 0.255920 0.514901
vt 0.000000 0.645756
vt 0.018468 0.349974
vt 0.437210 0.290597
vt 0.437210 0.290597
vt 0.526152 0.000000
vt 0.717104 0.231542
vt 0.190403 0.914462
vt 0.000000 0.914462
vt 0.095201 0.645756
vt 0.812306 0.203740
vt 0.812306 0.390236
vt 0.717104 0.390236
vn -0.4240 -0.0402 -0.9048
vn 0.0555 0.4611 -0.8856
vn 0.4240 -0.0402 -0.9048
vn 0.9544 -0.2985 0.0000
vn 0.0000 -0.1550 0.9879
vn 0.4836 -0.0921 0.8704
vn 0.0555 0.4611 0.8856
vn 0.4240 -0.0402 0.9048
vn 0.0891 0.4454 0.8909
vn 0.0891 0.4454 -0.8909
vn -0.0891 0.4454 -0.8909
vn -0.0555 0.4611 -0.8856
vn -0.0555 0.4611 0.8856
vn -0.4240 -0.0402 0.9048
vn -0.0891 0.4454 0.8909
vn 0.4836 -0.0921 -0.8704
vn 0.0000 -0.1550 -0.9879
vn -0.4836 -0.0921 -0.8704
vn -0.9544 -0.2985 0.0000
vn -0.4836 -0.0921 0.8704
vn 0.1961 -0.9806 0.0000
vn 0.9728 -0.2316 0.0000
vn -0.8662 0.4997 0.0000
vn -0.1961 -0.9806 0.0000
vn -0.9728 -0.2316 0.0000
vn 0.0000 -0.1888 -0.9820
vn 0.0000 -0.4997 0.8662
vn 0.8662 0.4997 0.0000
s 1
f 3/1/1 27/2/2 4/3/3
f 2/4/4 37/5/5 34/6/6
f 25/7/7 7/8/8 23/9/9
f 27/10/2 24/11/10 4/12/3
f 3/1/1 29/13/11 21/14/12
f 20/15/13 9/16/14 7/17/8
f 9/18/14 20/19/13 30/20/15
f 2/21/4 33/22/16 31/23/17
f 31/23/17 35/24/18 1/25/19
f 37/5/5 1/26/19 36/27/20
f 4/28/3 8/29/21 7/30/8
f 14/31/22 32/32/22 38/33/22
f 17/34/23 19/35/23 40/36/23
f 1/37/19 9/38/14 3/39/1
f 10/40/24 3/41/1 9/42/14
f 11/43/25 13/44/25 15/45/25
f 3/1/1 21/14/12 27/2/2
f 22/46/26 18/47/26 26/48/26
f 4/3/3 2/21/4 31/23/17
f 31/23/17 1/25/19 3/1/1
f 4/3/3 31/23/17 3/1/1
f 1/26/19 37/5/5 9/16/14
f 37/5/5 2/4/4 7/17/8
f 37/5/5 7/17/8 9/16/14
f 7/17/8 25/49/7 20/15/13
f 28/50/27 39/51/27 5/52/27
f 12/53/28 16/54/28 6/55/28
f 2/56/4 4/57/3 7/58/8
