# Blender v2.93.0 OBJ File: 'ludek.blend'
# www.blender.org
v -0.270000 0.630000 -0.150000
v 0.270000 0.630000 -0.150000
v -0.300000 1.200000 -0.150000
v 0.300000 1.200000 -0.150000
v -0.300000 1.200000 -0.150000
v 0.300000 1.200000 -0.150000
v -0.450000 1.470000 -0.150000
v 0.450000 1.470000 -0.150000
v 0.300000 1.200000 0.150000
v 1.050000 1.350000 0.000000
v -0.300000 1.200000 0.150000
v -1.050000 1.350000 0.000000
v 0.000000 0.630000 -0.150000
v -0.270000 0.630000 0.150000
v 0.270000 0.630000 0.150000
v 0.000000 2.250000 -0.150000
v 0.150000 0.000000 0.000000
v -0.300000 1.200000 0.150000
v 0.300000 1.200000 0.150000
v -0.150000 0.000000 0.000000
v -0.450000 1.470000 0.150000
v 0.450000 1.470000 0.150000
v 0.000000 0.630000 0.150000
v 0.000000 2.250000 0.450000
v -0.300000 1.200000 -0.150000
v -0.300000 1.200000 -0.150000
v -0.270000 0.630000 -0.150000
v -0.270000 0.630000 -0.150000
v 0.270000 0.630000 -0.150000
v 0.300000 1.200000 -0.150000
v 0.300000 1.200000 -0.150000
v 0.300000 1.200000 -0.150000
v 0.300000 1.200000 -0.150000
v 0.270000 0.630000 0.150000
v 0.300000 1.200000 0.150000
v 0.300000 1.200000 0.150000
v 0.300000 1.200000 0.150000
v 0.300000 1.200000 0.150000
v 0.300000 1.200000 0.150000
v 0.300000 1.200000 0.150000
v 0.450000 1.470000 0.150000
v 0.450000 1.470000 0.150000
v 0.450000 1.470000 0.150000
v 0.300000 1.200000 -0.150000
v 0.300000 1.200000 -0.150000
v -0.300000 1.200000 -0.150000
v -0.300000 1.200000 -0.150000
v -0.300000 1.200000 -0.150000
v 0.000000 2.250000 -0.150000
v 0.000000 2.250000 -0.150000
v -0.450000 1.470000 -0.150000
v 0.450000 1.470000 -0.150000
v 0.450000 1.470000 -0.150000
v 0.450000 1.470000 -0.150000
v 1.050000 1.350000 0.000000
v -1.050000 1.350000 0.000000
v 0.000000 2.250000 0.450000
v 0.000000 2.250000 0.450000
v -0.450000 1.470000 0.150000
v -0.450000 1.470000 0.150000
v -0.450000 1.470000 0.150000
v -0.300000 1.200000 0.150000
v -0.300000 1.200000 0.150000
v -0.300000 1.200000 0.150000
v -0.300000 1.200000 0.150000
v -0.300000 1.200000 0.150000
v -0.300000 1.200000 0.150000
v -0.270000 0.630000 0.150000
v 0.000000 0.630000 -0.150000
v 0.000000 0.630000 -0.150000
v 0.150000 0.000000 0.000000
v 0.150000 0.000000 0.000000
v 0.150000 0.000000 0.000000
v -0.150000 0.000000 0.000000
v -0.150000 0.000000 0.000000
v -0.150000 0.000000 0.000000
v 0.000000 0.630000 0.150000
v 0.000000 0.630000 0.150000
vt 0.263835 0.413572
vt 0.018468 0.349974
vt 0.105534 0.303621
vt 0.545919 0.548681
vt 0.629887 0.530965
vt 0.623806 0.748455
vt 0.512776 0.812615
vt 0.588341 0.748455
vt 0.588341 0.999648
vt 0.588341 0.935182
vt 0.663705 0.748455
vt 0.663705 1.000000
vt 0.437210 0.589106
vt 0.255920 0.514901
vt 0.717104 0.231542
vt 0.687404 0.328136
vt 0.500808 0.367506
vt 0.764705 0.000000
vt 0.812306 0.203740
vt 0.717104 0.203740
vt 0.512776 0.999648
vt 0.437211 0.935488
vt 0.512776 0.748455
vt 0.213706 0.153233
vt 0.358060 0.000000
vt 0.284942 0.202711
vt 0.437211 0.054976
vt 0.356177 0.252189
vt 0.713855 0.513248
vt 0.717104 0.728770
vt 0.812306 0.232832
vt 0.905658 0.000000
vt 0.905658 0.252234
vt 0.190403 0.914462
vt 0.095201 0.645756
vt 0.190403 0.645756
vt 0.952399 0.499571
vt 1.000000 0.697440
vt 0.904799 0.697440
vt 0.717104 0.593976
vt 0.764705 0.390236
vt 0.812306 0.593976
vt 0.380806 0.645756
vt 0.380806 0.645756
vt 0.380806 0.645756
vt 0.904799 0.499571
vt 0.904799 0.708428
vt 0.812306 0.684996
vt 0.380806 0.645756
vt 0.380806 0.645756
vt 0.380806 0.645756
vt 0.717104 0.978341
vt 0.764705 0.780472
vt 0.812306 0.978341
vt 0.190403 0.914462
vt 0.285604 0.645756
vt 0.380806 0.914462
vt 0.812306 0.780472
vt 0.717104 0.780472
vt 0.859907 0.252234
vt 0.907507 0.499571
vt 0.812306 0.499571
vt 0.812306 0.893854
vt 0.904799 0.708428
vt 0.904799 0.917286
vt 0.717104 0.390236
vt 0.380806 0.645756
vt 0.380806 0.645756
vt 0.380806 0.645756
vt 0.000000 0.645756
vt 0.380806 0.645756
vt 0.380806 0.645756
vt 0.380806 0.645756
vt 0.380806 0.645756
vt 0.380806 0.645756
vt 0.380806 0.645756
vt 0.380806 0.645756
vt 0.380806 0.645756
vt 0.380806 0.645756
vt 0.437210 0.290597
vt 0.526152 0.000000
vt 0.000000 0.914462
vt 0.380806 0.645756
vt 0.380806 0.645756
vt 0.380806 0.645756
vt 0.380806 0.645756
vt 0.380806 0.645756
vt 0.380806 0.645756
vt 0.190403 0.645756
vt 0.812306 0.390236
vn -0.0982 -0.3096 -0.9457
vn 0.0000 0.0000 -1.0000
vn 0.0000 -0.1075 0.9942
vn 0.0000 -0.2316 0.9728
vn 0.2179 -0.1210 0.9684
vn 0.2640 -0.8321 0.4878
vn 0.4595 -0.8881 0.0000
vn 0.2179 -0.1210 -0.9684
vn 0.2640 -0.8321 -0.4878
vn -0.4595 -0.8881 0.0000
vn -0.1032 -0.0573 -0.9930
vn 0.0000 -0.1837 0.9830
vn 0.0000 0.0000 1.0000
vn 0.9823 -0.1871 0.0000
vn 0.9934 -0.1148 0.0000
vn -0.2640 -0.8321 0.4878
vn -0.2179 -0.1210 0.9684
vn 0.0000 -0.1075 -0.9942
vn 0.0000 -0.2316 -0.9728
vn 0.8662 0.4997 0.0000
vn 0.6451 0.7640 0.0000
vn 0.6131 0.7900 0.0000
vn 0.1961 0.9806 0.0000
vn -0.9934 -0.1148 0.0000
vn -0.9823 -0.1871 0.0000
vn 0.2408 0.9631 -0.1204
vn 0.9728 -0.2316 0.0000
vn -0.2408 0.9631 -0.1204
vn -0.6131 0.7900 0.0000
vn -0.1961 0.9806 0.0000
vn -0.6451 0.7640 0.0000
vn -0.8662 0.4997 0.0000
vn -0.9986 -0.0526 0.0000
vn -0.9728 -0.2316 0.0000
vn 0.9986 -0.0526 0.0000
vn -0.3848 0.8979 -0.2138
vn 0.2913 0.9517 -0.0971
vn 0.2913 0.9517 0.0971
vn -0.2913 0.9517 0.0971
vn 0.0000 -0.3590 0.9333
vn 0.2408 0.9631 0.1204
vn -0.2408 0.9631 0.1204
s 1
f 47/1/1 53/2/2 30/3/2
f 15/4/3 77/5/3 73/6/4
f 41/7/5 38/8/6 55/9/7
f 52/10/8 55/11/7 45/12/9
f 47/1/1 56/13/10 51/14/11
f 61/15/12 65/16/13 37/17/13
f 72/18/14 2/19/15 34/20/15
f 63/21/16 60/22/17 56/23/10
f 29/24/18 71/25/19 69/26/18
f 69/26/18 74/27/19 28/28/18
f 77/5/3 68/29/3 75/30/4
f 45/31/9 55/32/7 38/33/6
f 50/34/20 43/35/21 54/36/22
f 10/37/23 54/38/22 43/39/21
f 27/40/24 76/41/25 14/42/24
f 32/43/26 39/44/13 36/45/13
f 20/46/27 70/47/27 78/48/27
f 48/49/28 64/50/13 62/51/13
f 7/52/29 12/53/30 59/54/31
f 16/55/32 59/56/31 57/57/32
f 27/40/24 66/58/33 25/59/33
f 56/60/10 47/61/1 63/62/16
f 13/63/34 17/64/34 23/65/34
f 2/19/15 35/66/35 34/20/15
f 1/67/36 26/68/13 46/69/13
f 47/1/1 51/14/11 53/2/2
f 51/14/11 49/70/2 53/2/2
f 8/71/37 44/72/13 31/73/13
f 30/3/2 29/24/18 69/26/18
f 69/26/18 28/28/18 47/1/1
f 30/3/2 69/26/18 47/1/1
f 68/29/3 77/5/3 65/16/13
f 77/5/3 15/4/3 37/17/13
f 19/74/13 9/75/13 22/76/38
f 77/5/3 37/17/13 65/16/13
f 21/77/39 11/78/13 18/79/13
f 37/17/13 42/80/12 61/15/12
f 42/80/12 58/81/40 61/15/12
f 50/34/20 24/82/20 43/35/21
f 4/83/13 6/84/13 40/85/41
f 5/86/13 3/87/13 67/88/42
f 16/55/32 7/89/29 59/56/31
f 27/40/24 14/42/24 66/58/33
f 2/19/15 33/90/35 35/66/35
