# Blender v2.82 (sub 7) OBJ File: 'path_finding.blend'
# www.blender.org
v -49.793751 5.929550 49.975643
v -49.973965 -0.018114 -49.970467
v -49.974018 -0.031068 -26.362724
v -49.974010 5.960365 -21.417435
v -50.038631 10.028344 -11.945774
v -49.974010 2.765426 -7.139145
v -50.034447 0.618082 -0.286702
v -49.974010 3.814815 11.898573
v -49.974010 10.055856 16.658003
v -50.263412 8.258110 21.732403
v -49.947521 -0.348212 31.384073
v -49.974010 8.305670 45.214581
v -40.455151 4.704216 49.974010
v -35.695724 6.332415 49.974010
v -30.936293 6.702826 49.974010
v -21.715378 0.398436 49.980377
v -11.898576 0.000000 49.974010
v -3.400821 3.931988 49.955963
v 2.379715 11.230591 49.974010
v 7.139144 11.086404 49.974010
v 11.898573 3.803157 49.974010
v 16.658003 3.493150 49.974010
v 21.417431 0.000000 49.974010
v 26.333704 1.313000 49.978527
v 50.110744 -0.301026 49.971333
v 50.028782 3.661407 44.364410
v 49.973663 0.015355 32.050755
v 49.979015 0.078744 -0.072403
v 50.176479 4.712898 -24.569441
v 49.974010 0.000000 -30.936291
v 49.974010 0.000000 -49.974010
v 35.695724 -0.000000 -49.974010
v 30.936293 3.992408 -49.974010
v 24.422787 0.317332 -50.013412
v 4.064405 -0.113702 -49.976608
v -2.379715 1.473278 -49.974010
v -7.139144 6.479249 -49.974010
v -11.898573 0.346517 -49.974010
v -19.231693 8.747903 -50.071117
v -30.586098 8.451746 -49.971134
v -36.572475 2.042967 -49.957600
v -45.214581 4.430282 45.214581
v -50.006413 0.199525 39.961109
v -45.492100 5.020160 22.781637
v -45.024326 7.967780 12.032756
v -50.020191 6.682138 7.570702
v -44.471153 10.663840 -14.163449
v -40.455154 0.000000 30.936293
v -41.734135 8.930710 9.955754
v -42.405945 1.843652 3.133166
v -42.227497 6.367468 -1.886753
v -41.027721 4.302342 -7.740395
v -40.455151 11.651072 -16.658003
v -43.202671 6.769089 -20.657829
v -39.756439 0.227067 45.831570
v -39.113327 9.278777 22.083059
v -37.007126 7.056725 15.451282
v -34.283520 2.844220 12.087337
v -36.408871 5.265230 4.996325
v -35.815327 6.813435 -17.176491
v -34.518105 0.204730 -43.485092
v -30.940866 0.266110 41.925827
v -31.820089 0.161613 27.001060
v -35.499767 0.410416 -2.420091
v -34.568016 -0.060303 -12.657948
v -34.038704 0.118103 -26.023558
v -35.537613 0.172416 -33.055172
v -25.708178 3.963669 27.617319
v -27.722393 5.774418 21.880695
v -26.176865 3.301876 11.898576
v -28.839020 6.622526 7.052792
v -28.666889 5.043377 2.915254
v -26.728525 6.431963 -15.128355
v -26.604517 8.717208 -22.198025
v -26.130087 6.220815 -26.747166
v -26.458719 3.821527 49.952614
v -26.081207 0.000593 35.759018
v -21.463087 0.087340 7.367602
v -26.369188 3.569201 -36.473541
v -22.297848 9.543016 -44.268234
v -17.899881 0.239828 42.662483
v -16.774172 0.084455 24.798527
v -19.836855 0.190987 0.663729
v -24.239897 0.084796 -8.108027
v -19.182516 0.081810 -21.184551
v -22.156614 0.003545 -33.944630
v -8.593250 0.034891 -32.116787
v -12.697949 0.051141 -44.615234
v -7.139145 0.301054 45.214581
v -10.787313 0.117770 39.389629
v -6.841920 -0.170883 -44.641186
v -1.985205 4.815844 43.415455
v -3.484414 0.001433 8.631825
v -1.749104 1.162843 -28.650450
v -3.299621 0.313822 -35.740288
v 2.379715 9.981633 45.214581
v -2.959144 0.021337 34.989826
v 6.057113 0.000367 17.110619
v 2.362115 1.669252 -38.193913
v 4.626141 0.239527 40.102394
v 3.722323 3.202583 6.629732
v 4.486607 0.630970 -30.880213
v 7.321734 -0.016847 -38.071304
v 8.101074 6.885879 45.514793
v 6.435724 4.148290 11.520533
v 9.245315 5.989843 4.601388
v 6.623156 0.052129 -22.308865
v 11.845079 -0.043045 -34.706493
v 15.660043 3.514938 41.381374
v 15.589708 0.007379 35.231728
v 16.658003 2.482661 -35.695721
v 14.662789 0.607171 -39.899605
v 10.319325 0.292048 -46.170311
v 18.956238 3.105545 45.483566
v 25.487146 0.237291 39.307911
v 20.413059 2.261943 2.200182
v 10.975482 0.008611 -2.755130
v 18.928789 0.113640 -33.424931
v 24.429119 0.081758 6.344469
v 27.885595 0.562012 46.744553
v 30.936291 4.897313 40.455151
v 30.168013 2.244242 35.992542
v 31.294825 0.077472 15.015469
v 30.624908 5.438016 3.686961
v 39.760677 0.703632 -12.484849
v 27.435598 0.040133 -26.114449
v 30.356472 0.015307 -44.884926
v 35.695721 3.050070 2.379715
v 34.080181 -0.031254 -6.527199
v 37.413654 0.003422 -36.279110
v 36.730602 0.581711 43.083996
v 28.629511 0.129120 30.672606
v 39.135559 -0.081887 2.933707
v 40.743118 4.470486 -19.740896
v 36.834496 7.282309 -28.048094
v 40.513634 4.341036 35.546120
v 42.569576 4.721598 -2.927271
v 44.777485 2.631232 -9.396304
v 49.953381 -0.028536 -16.842344
v 45.214581 5.074013 -21.417431
v 45.710503 0.239500 -29.076023
vn -0.1447 0.9388 0.3126
vn -0.4776 0.6724 0.5655
vn -0.0271 0.9884 -0.1497
vn 0.7444 0.6514 0.1469
vn 0.0381 0.9974 0.0607
vn 0.5607 0.5331 0.6335
vn 0.2376 0.9649 -0.1117
vn 0.5334 0.6359 0.5577
vn 0.0000 1.0000 -0.0030
vn 0.5935 0.7289 0.3413
vn 0.4041 0.4963 -0.7683
vn 0.3434 0.7065 0.6188
vn 0.5941 0.7470 0.2985
vn -0.4380 0.5451 -0.7148
vn -0.5798 0.6764 0.4543
vn -0.5413 0.8037 0.2471
vn -0.0387 0.5512 0.8335
vn -0.0653 0.9167 -0.3942
vn -0.0138 0.9999 0.0005
vn 0.1278 0.9746 -0.1839
vn 0.4406 0.4589 -0.7715
vn -0.0031 0.9644 0.2643
vn -0.2678 0.9632 0.0223
vn -0.0096 0.9999 0.0098
vn -0.0037 1.0000 0.0017
vn -0.0011 0.9997 -0.0233
vn 0.3116 0.6320 0.7096
vn -0.1767 0.6913 -0.7007
vn 0.5739 0.5981 0.5594
vn 0.6515 0.7474 -0.1302
vn 0.6479 0.5669 0.5088
vn 0.3785 0.4498 -0.8090
vn 0.2547 0.7950 -0.5505
vn -0.3049 0.6652 -0.6815
vn 0.1927 0.5808 0.7909
vn 0.2830 0.9329 -0.2227
vn 0.4468 0.6985 -0.5589
vn 0.0043 0.9992 -0.0397
vn -0.5101 0.7525 0.4166
vn 0.0060 0.9990 -0.0454
vn -0.5737 0.6914 -0.4392
vn -0.5978 0.7905 0.1335
vn -0.3577 0.9333 -0.0321
vn 0.4294 0.8935 0.1313
vn 0.4855 0.8632 -0.1386
vn 0.6519 0.7431 0.1511
vn 0.6484 0.7199 -0.2478
vn 0.7262 0.6503 0.2230
vn 0.7475 0.6122 -0.2580
vn 0.7009 0.6836 -0.2036
vn 0.5614 0.7802 0.2758
vn -0.0134 0.9999 -0.0054
vn 0.4429 0.8043 0.3962
vn 0.5327 0.5141 0.6723
vn 0.0406 0.9992 -0.0005
vn -0.0020 0.9995 -0.0323
vn -0.0007 1.0000 0.0071
vn 0.0036 0.9999 0.0163
vn -0.0026 1.0000 0.0022
vn -0.0581 0.9983 0.0050
vn 0.0055 1.0000 -0.0013
vn -0.6669 0.7439 -0.0438
vn -0.5566 0.7648 0.3245
vn 0.0030 1.0000 0.0004
vn -0.7491 0.6584 -0.0732
vn 0.3116 0.8099 -0.4969
vn 0.0390 0.9911 -0.1272
vn -0.2187 0.9752 0.0340
vn 0.0293 0.9668 -0.2537
vn 0.3114 0.4969 -0.8100
vn 0.0999 0.9941 0.0422
vn 0.3207 0.9463 0.0412
vn 0.0247 0.9890 -0.1461
vn 0.7938 0.5187 -0.3174
vn -0.1105 0.6617 -0.7416
vn 0.1114 0.9930 0.0393
vn 0.0561 0.9961 -0.0676
vn 0.3092 0.8849 0.3484
vn 0.3238 0.9312 -0.1673
vn 0.4602 0.6978 0.5489
vn 0.3651 0.8521 0.3750
vn 0.1313 0.7841 -0.6066
vn -0.0193 0.9997 -0.0158
vn 0.3937 0.7966 -0.4588
vn -0.0080 1.0000 0.0038
vn 0.1806 0.9317 0.3152
vn 0.8101 0.2858 -0.5120
vn 0.0178 0.9979 -0.0625
vn 0.1728 0.8519 0.4944
vn -0.0521 0.9428 -0.3294
vn 0.0020 1.0000 0.0018
vn -0.0034 1.0000 -0.0039
vn -0.0028 1.0000 0.0027
vn 0.0086 1.0000 0.0000
vn -0.1170 0.9536 -0.2776
vn 0.2592 0.7319 0.6302
vn 0.6547 0.5949 -0.4664
vn 0.5333 0.7764 0.3359
vn 0.3195 0.8761 -0.3610
vn -0.4464 0.8175 0.3639
vn 0.0028 1.0000 -0.0009
vn -0.3971 0.8872 -0.2349
vn 0.0677 0.9977 -0.0037
vn -0.1383 0.9123 0.3856
vn 0.0055 1.0000 -0.0024
vn -0.0225 0.9994 -0.0278
vn 0.2624 0.8415 0.4724
vn -0.0065 0.9463 0.3233
vn 0.4715 0.6768 -0.5653
vn -0.4335 0.7329 0.5243
vn 0.3158 0.9094 -0.2707
vn 0.0015 1.0000 0.0020
vn 0.5513 0.8305 -0.0802
vn 0.3707 0.7868 0.4935
vn -0.2755 0.8047 -0.5258
vn 0.0278 0.9975 -0.0647
vn 0.0003 1.0000 -0.0000
vn -0.6719 0.6285 0.3918
vn 0.6824 0.6804 0.2673
vn -0.6143 0.4767 0.6288
vn -0.2527 0.9637 0.0857
vn -0.0212 0.9972 -0.0714
vn -0.4195 0.7378 0.5288
vn -0.0396 0.9972 -0.0640
vn -0.0063 0.8498 0.5271
vn 0.5059 0.8260 0.2485
vn 0.1453 0.7831 -0.6047
vn -0.3848 0.6924 0.6103
vn -0.1814 0.9151 -0.3600
vn 0.1720 0.7445 0.6451
vn -0.3025 0.7902 -0.5330
vn 0.0105 0.6365 -0.7712
vn 0.5391 0.6158 -0.5746
vn -0.3754 0.6677 0.6429
vn -0.5359 0.7345 -0.4163
vn -0.0468 0.9325 0.3582
vn 0.0197 0.6924 -0.7212
vn 0.2074 0.7484 0.6300
vn -0.4929 0.7004 -0.5163
vn -0.2202 0.6437 -0.7329
vn -0.0213 0.9998 -0.0057
vn 0.6522 0.6835 -0.3279
vn 0.6162 0.7833 0.0827
vn -0.2786 0.7876 -0.5497
vn 0.5668 0.8238 0.0137
vn 0.7132 0.4708 0.5193
vn -0.0151 0.9999 0.0016
vn -0.0607 0.7795 -0.6234
vn 0.0425 0.9991 -0.0095
vn 0.4614 0.7163 -0.5234
vn -0.2625 0.8864 0.3813
vn -0.0696 0.9310 -0.3582
vn -0.1254 0.8230 -0.5541
vn -0.1669 0.5203 0.8375
vn -0.0293 0.9513 0.3070
vn -0.4598 0.6612 -0.5927
vn 0.0254 0.9087 -0.4167
vn -0.5194 0.7775 0.3546
vn -0.0604 0.9667 -0.2488
vn -0.0326 0.8160 0.5771
vn 0.1575 0.6368 -0.7547
vn 0.0182 0.9996 -0.0212
vn -0.3155 0.6456 0.6955
vn -0.4124 0.8815 -0.2302
vn -0.5688 0.7688 0.2921
vn 0.4686 0.7857 0.4039
vn 0.4726 0.8721 -0.1270
vn 0.5035 0.8534 0.1353
vn 0.7410 0.6074 0.2864
vn 0.7264 0.6650 -0.1734
vn 0.0234 0.9996 0.0136
vn 0.0390 0.9981 0.0474
vn 0.0138 0.9999 -0.0046
vn -0.0015 1.0000 -0.0058
vn 0.0378 0.9992 -0.0111
vn -0.3953 0.8528 -0.3414
vn 0.0047 1.0000 0.0002
vn -0.0705 0.9972 -0.0262
vn -0.2467 0.8543 -0.4576
vn 0.0052 1.0000 -0.0057
vn -0.0018 1.0000 0.0010
vn -0.4425 0.5783 0.6854
vn -0.1158 0.9889 -0.0931
vn -0.7735 0.6130 -0.1609
vn -0.1459 0.4331 -0.8895
vn -0.4539 0.7300 0.5109
vn -0.3958 0.9174 0.0422
vn 0.0011 1.0000 0.0020
vn -0.1534 0.9712 0.1824
vn 0.4122 0.7059 -0.5760
vn 0.0013 0.9990 -0.0446
vn 0.0008 1.0000 -0.0008
vn -0.4305 0.9002 0.0648
vn -0.4596 0.6699 -0.5832
vn 0.3147 0.9369 0.1522
vn -0.1970 0.8526 -0.4840
vn -0.5242 0.5962 -0.6080
vn -0.0619 0.9939 0.0909
vn -0.0829 0.9965 0.0073
vn 0.0649 0.9965 -0.0528
vn -0.1550 0.6021 0.7832
vn -0.4838 0.8614 -0.1547
vn 0.5762 0.7851 0.2271
vn 0.2893 0.9472 -0.1379
vn -0.0060 0.9991 -0.0417
vn -0.0157 0.9997 -0.0182
vn 0.0020 1.0000 0.0077
vn 0.0511 0.9978 0.0424
vn 0.0108 0.9989 0.0463
vn -0.2434 0.9125 -0.3287
vn -0.4984 0.8454 -0.1920
vn -0.3091 0.6849 0.6598
vn -0.1863 0.8385 -0.5120
vn 0.0012 1.0000 0.0032
vn -0.6609 0.7282 0.1814
vn -0.5663 0.7476 -0.3470
vn -0.4981 0.7720 0.3948
vn -0.0922 0.9951 0.0349
vn -0.1691 0.9133 0.3706
vn -0.2017 0.9288 -0.3110
vn 0.4554 0.6142 0.6445
vn -0.4741 0.7419 0.4742
vn -0.5734 0.5933 -0.5650
vn 0.4084 0.5740 0.7097
vn -0.3860 0.8855 -0.2588
vn 0.0009 1.0000 0.0006
vn 0.0502 0.6918 -0.7203
vn 0.1792 0.7068 0.6843
vn -0.1419 0.9267 -0.3479
vn -0.1049 0.9112 -0.3984
vn 0.1496 0.7335 0.6631
vn 0.5310 0.7316 -0.4275
vn 0.4497 0.8931 -0.0064
vn -0.2077 0.7894 -0.5777
s off
f 61//1 41//1 2//1
f 80//2 40//2 61//2
f 80//3 39//3 40//3
f 88//4 38//4 39//4
f 91//5 38//5 88//5
f 91//6 36//6 37//6
f 35//7 36//7 99//7
f 127//8 32//8 33//8
f 31//9 32//9 127//9
f 1//10 42//10 12//10
f 42//11 43//11 12//11
f 11//12 44//12 10//12
f 10//13 45//13 9//13
f 9//14 45//14 8//14
f 45//15 46//15 8//15
f 51//16 6//16 7//16
f 52//17 5//17 6//17
f 5//18 54//18 4//18
f 3//19 67//19 2//19
f 13//20 42//20 1//20
f 55//21 43//21 42//21
f 44//22 57//22 45//22
f 45//23 49//23 46//23
f 66//24 67//24 3//24
f 55//25 62//25 43//25
f 62//26 48//26 43//26
f 48//27 63//27 56//27
f 49//28 59//28 50//28
f 50//29 64//29 51//29
f 64//30 52//30 51//30
f 52//31 60//31 53//31
f 60//32 54//32 53//32
f 60//33 66//33 54//33
f 14//34 62//34 55//34
f 63//35 69//35 56//35
f 69//36 57//36 56//36
f 76//37 62//37 15//37
f 81//38 77//38 62//38
f 68//39 69//39 63//39
f 84//40 65//40 64//40
f 74//41 75//41 66//41
f 75//42 67//42 66//42
f 79//43 61//43 67//43
f 68//44 82//44 69//44
f 82//45 70//45 69//45
f 70//46 78//46 71//46
f 78//47 72//47 71//47
f 73//48 85//48 74//48
f 85//49 75//49 74//49
f 86//50 79//50 75//50
f 16//51 81//51 76//51
f 85//52 84//52 83//52
f 86//53 88//53 79//53
f 79//54 88//54 80//54
f 17//55 81//55 16//55
f 97//56 77//56 81//56
f 97//57 82//57 77//57
f 93//58 83//58 78//58
f 87//59 88//59 86//59
f 17//60 89//60 90//60
f 97//61 78//61 82//61
f 18//62 92//62 89//62
f 92//63 90//63 89//63
f 98//64 78//64 97//64
f 18//65 96//65 92//65
f 100//66 97//66 92//66
f 102//67 95//67 94//67
f 95//68 99//68 91//68
f 20//69 96//69 19//69
f 104//70 100//70 96//70
f 107//71 102//71 94//71
f 102//72 103//72 99//72
f 99//73 113//73 35//73
f 21//74 104//74 20//74
f 104//75 109//75 100//75
f 107//76 108//76 102//76
f 108//77 103//77 102//77
f 21//78 114//78 104//78
f 114//79 109//79 104//79
f 98//80 116//80 105//80
f 105//81 116//81 106//81
f 116//82 117//82 106//82
f 118//83 108//83 107//83
f 120//84 110//84 109//84
f 132//85 98//85 110//85
f 98//86 119//86 116//86
f 118//87 112//87 111//87
f 127//88 113//88 112//88
f 23//89 120//89 114//89
f 116//90 129//90 117//90
f 129//91 107//91 117//91
f 123//92 98//92 132//92
f 123//93 119//93 98//93
f 126//94 127//94 118//94
f 24//95 131//95 120//95
f 120//96 131//96 121//96
f 131//97 122//97 121//97
f 123//98 133//98 124//98
f 128//99 129//99 124//99
f 134//100 126//100 125//100
f 130//101 127//101 126//101
f 128//102 137//102 129//102
f 25//103 131//103 24//103
f 25//104 136//104 131//104
f 27//105 123//105 132//105
f 28//106 133//106 123//106
f 125//107 139//107 134//107
f 140//108 135//108 134//108
f 141//109 130//109 135//109
f 26//110 136//110 25//110
f 26//111 27//111 136//111
f 27//112 28//112 123//112
f 28//113 138//113 137//113
f 139//114 29//114 140//114
f 140//115 29//115 141//115
f 30//116 130//116 141//116
f 30//117 31//117 130//117
f 61//118 40//118 41//118
f 80//119 88//119 39//119
f 91//120 37//120 38//120
f 91//121 99//121 36//121
f 113//122 34//122 35//122
f 127//123 33//123 34//123
f 11//124 43//124 48//124
f 11//125 48//125 44//125
f 10//126 44//126 45//126
f 46//127 50//127 7//127
f 50//128 51//128 7//128
f 51//129 52//129 6//129
f 52//130 47//130 5//130
f 5//131 47//131 54//131
f 4//132 54//132 3//132
f 13//133 55//133 42//133
f 48//134 56//134 44//134
f 44//135 56//135 57//135
f 57//136 49//136 45//136
f 46//137 49//137 50//137
f 47//138 52//138 53//138
f 47//139 53//139 54//139
f 54//132 66//132 3//132
f 13//140 14//140 55//140
f 62//141 63//141 48//141
f 57//142 58//142 49//142
f 58//143 59//143 49//143
f 50//144 59//144 64//144
f 52//145 64//145 65//145
f 52//146 65//146 60//146
f 67//147 61//147 2//147
f 14//148 15//148 62//148
f 62//149 77//149 63//149
f 69//150 58//150 57//150
f 58//151 71//151 59//151
f 59//152 71//152 72//152
f 59//153 72//153 64//153
f 65//154 73//154 60//154
f 60//155 73//155 74//155
f 60//156 74//156 66//156
f 76//157 81//157 62//157
f 77//158 68//158 63//158
f 58//159 69//159 70//159
f 58//160 70//160 71//160
f 72//161 83//161 64//161
f 64//162 83//162 84//162
f 84//163 73//163 65//163
f 67//164 75//164 79//164
f 79//165 80//165 61//165
f 68//166 77//166 82//166
f 70//167 82//167 78//167
f 78//168 83//168 72//168
f 73//169 84//169 85//169
f 85//170 86//170 75//170
f 17//171 90//171 81//171
f 90//172 97//172 81//172
f 93//173 85//173 83//173
f 85//174 87//174 86//174
f 87//175 91//175 88//175
f 17//176 18//176 89//176
f 93//177 87//177 85//177
f 87//178 95//178 91//178
f 90//179 92//179 97//179
f 98//180 93//180 78//180
f 93//181 107//181 87//181
f 107//182 94//182 87//182
f 87//183 94//183 95//183
f 18//184 19//184 96//184
f 92//185 96//185 100//185
f 98//186 105//186 93//186
f 93//187 105//187 101//187
f 117//188 107//188 93//188
f 102//189 99//189 95//189
f 20//190 104//190 96//190
f 100//191 110//191 97//191
f 110//192 98//192 97//192
f 105//193 106//193 101//193
f 93//194 101//194 117//194
f 99//195 103//195 113//195
f 100//196 109//196 110//196
f 101//197 106//197 117//197
f 108//198 112//198 103//198
f 103//199 112//199 113//199
f 21//200 22//200 114//200
f 118//201 111//201 108//201
f 108//202 111//202 112//202
f 22//203 23//203 114//203
f 114//204 120//204 109//204
f 120//205 115//205 110//205
f 115//206 132//206 110//206
f 107//207 126//207 118//207
f 118//208 127//208 112//208
f 127//209 34//209 113//209
f 23//210 24//210 120//210
f 115//211 122//211 132//211
f 119//212 124//212 116//212
f 116//213 124//213 129//213
f 129//214 126//214 107//214
f 120//215 121//215 115//215
f 115//216 121//216 122//216
f 123//217 124//217 119//217
f 129//218 125//218 126//218
f 131//219 136//219 122//219
f 122//220 136//220 132//220
f 124//221 133//221 128//221
f 134//222 135//222 126//222
f 126//223 135//223 130//223
f 128//224 133//224 137//224
f 129//225 137//225 125//225
f 130//226 31//226 127//226
f 136//227 27//227 132//227
f 133//228 28//228 137//228
f 137//229 138//229 125//229
f 125//230 138//230 139//230
f 134//231 139//231 140//231
f 140//232 141//232 135//232
f 28//233 139//233 138//233
f 141//234 29//234 30//234
