# Blender v2.82 (sub 7) OBJ File: 'path_finding.blend'
# www.blender.org
v -50.000000 0.000000 50.000000
v 50.000000 0.000000 50.000000
v -50.000000 0.000000 -50.000000
v 50.000000 0.000000 -50.000000
v -50.000000 0.000000 -40.000000
v -50.000000 0.000000 -30.000000
v -50.000000 0.000000 -20.000000
v -50.000000 0.000000 -10.000000
v -50.000000 0.000000 0.000000
v -50.000000 0.000000 10.000000
v -50.000000 0.000000 20.000000
v -50.000000 0.000000 30.000000
v -50.000000 0.000000 40.000000
v -40.000000 0.000000 50.000000
v -30.000000 0.000000 50.000000
v -20.000000 0.000000 50.000000
v -10.000000 0.000000 50.000000
v 0.000000 0.000000 50.000000
v 10.000000 0.000000 50.000000
v 20.000000 0.000000 50.000000
v 30.000000 0.000000 50.000000
v 40.000000 0.000000 50.000000
v 50.000000 0.000000 40.000000
v 50.000000 0.000000 30.000000
v 50.000000 0.000000 20.000000
v 50.000000 0.000000 10.000000
v 50.000000 0.000000 0.000000
v 50.000000 0.000000 -10.000000
v 50.000000 0.000000 -20.000000
v 50.000000 0.000000 -30.000000
v 50.000000 0.000000 -40.000000
v 40.000000 0.000000 -50.000000
v 30.000000 0.000000 -50.000000
v 20.000000 0.000000 -50.000000
v 10.000000 0.000000 -50.000000
v 0.000000 0.000000 -50.000000
v -10.000000 0.000000 -50.000000
v -20.000000 0.000000 -50.000000
v -30.000000 0.000000 -50.000000
v -40.000000 0.000000 -50.000000
v -40.000000 0.000000 40.000000
v -40.000000 0.000000 30.000000
v -40.000000 0.000000 20.000000
v -40.000000 0.000000 10.000000
v -40.000000 0.000000 0.000000
v -40.000000 0.000000 -10.000000
v -40.000000 0.000000 -20.000000
v -40.000000 0.000000 -30.000000
v -40.000000 0.000000 -40.000000
v -30.000000 0.000000 40.000000
v -30.000000 0.000000 30.000000
v -30.000000 4.556580 20.000000
v -30.000000 4.556580 10.000000
v -30.000000 4.556580 0.000000
v -30.000000 4.556580 -10.000000
v -30.000000 0.000000 -20.000000
v -30.000000 0.000000 -30.000000
v -30.000000 0.000000 -40.000000
v -20.000000 0.000000 40.000000
v -20.000000 0.000000 30.000000
v -20.000000 4.556580 20.000000
v -20.000000 4.556580 10.000000
v -20.000000 4.556580 0.000000
v -20.000000 4.556580 -10.000000
v -20.000000 0.000000 -20.000000
v -20.000000 0.000000 -30.000000
v -20.000000 0.000000 -40.000000
v -10.000000 0.000000 40.000000
v -10.000000 0.000000 30.000000
v -10.000000 4.556580 20.000000
v -10.000000 4.556580 10.000000
v -10.000000 0.000000 0.000000
v -10.000000 0.000000 -10.000000
v -10.000000 0.000000 -20.000000
v -10.000000 0.000000 -30.000000
v -10.000000 0.000000 -40.000000
v 0.000000 0.000000 40.000000
v 0.000000 0.000000 30.000000
v 0.000000 4.556580 20.000000
v 0.000000 4.556580 10.000000
v 0.000000 0.000000 0.000000
v 0.000000 0.000000 -10.000000
v 0.000000 0.000000 -20.000000
v 0.000000 0.000000 -30.000000
v 0.000000 0.000000 -40.000000
v 10.000000 0.000000 40.000000
v 10.000000 0.000000 30.000000
v 10.000000 4.556580 20.000000
v 10.000000 4.556580 10.000000
v 10.000000 0.000000 0.000000
v 10.000000 0.000000 -10.000000
v 10.000000 0.000000 -20.000000
v 10.000000 0.000000 -30.000000
v 10.000000 0.000000 -40.000000
v 20.000000 0.000000 40.000000
v 20.000000 0.000000 30.000000
v 20.000000 4.556580 20.000000
v 20.000000 4.556580 10.000000
v 20.000000 0.000000 0.000000
v 20.000000 0.000000 -10.000000
v 20.000000 0.000000 -20.000000
v 20.000000 0.000000 -30.000000
v 20.000000 0.000000 -40.000000
v 30.000000 0.000000 40.000000
v 30.000000 0.000000 30.000000
v 30.000000 0.000000 20.000000
v 30.000000 0.000000 10.000000
v 30.000000 0.000000 0.000000
v 30.000000 0.000000 -10.000000
v 30.000000 0.000000 -20.000000
v 30.000000 0.000000 -30.000000
v 30.000000 0.000000 -40.000000
v 40.000000 0.000000 40.000000
v 40.000000 0.000000 30.000000
v 40.000000 0.000000 20.000000
v 40.000000 0.000000 10.000000
v 40.000000 0.000000 0.000000
v 40.000000 0.000000 -10.000000
v 40.000000 0.000000 -20.000000
v 40.000000 0.000000 -30.000000
v 40.000000 0.000000 -40.000000
vt 1.000000 0.900000
vt 0.900000 1.000000
vt 0.900000 0.900000
vt 0.100000 0.900000
vt 0.000000 1.000000
vt 0.000000 0.900000
vt 0.200000 0.900000
vt 0.100000 1.000000
vt 0.300000 0.900000
vt 0.200000 1.000000
vt 0.400000 0.900000
vt 0.300000 1.000000
vt 0.500000 0.900000
vt 0.400000 1.000000
vt 0.600000 0.900000
vt 0.500000 1.000000
vt 0.700000 0.900000
vt 0.600000 1.000000
vt 0.800000 0.900000
vt 0.700000 1.000000
vt 0.800000 1.000000
vt 0.100000 0.000000
vt 0.000000 0.100000
vt 0.000000 0.000000
vt 0.100000 0.100000
vt 0.000000 0.200000
vt 0.100000 0.200000
vt 0.000000 0.300000
vt 0.100000 0.300000
vt 0.000000 0.400000
vt 0.100000 0.400000
vt 0.000000 0.500000
vt 0.100000 0.500000
vt 0.000000 0.600000
vt 0.100000 0.600000
vt 0.000000 0.700000
vt 0.100000 0.700000
vt 0.000000 0.800000
vt 0.100000 0.800000
vt 0.200000 0.000000
vt 0.200000 0.100000
vt 0.200000 0.200000
vt 0.200000 0.300000
vt 0.200000 0.400000
vt 0.200000 0.500000
vt 0.200000 0.700000
vt 0.200000 0.800000
vt 0.300000 0.000000
vt 0.300000 0.100000
vt 0.300000 0.200000
vt 0.300000 0.300000
vt 0.300000 0.400000
vt 0.300000 0.500000
vt 0.200000 0.600000
vt 0.300000 0.600000
vt 0.300000 0.700000
vt 0.300000 0.800000
vt 0.400000 0.000000
vt 0.400000 0.100000
vt 0.400000 0.200000
vt 0.400000 0.300000
vt 0.400000 0.400000
vt 0.400000 0.500000
vt 0.400000 0.600000
vt 0.400000 0.700000
vt 0.400000 0.800000
vt 0.500000 0.000000
vt 0.500000 0.100000
vt 0.500000 0.200000
vt 0.500000 0.300000
vt 0.500000 0.400000
vt 0.500000 0.500000
vt 0.500000 0.600000
vt 0.500000 0.700000
vt 0.500000 0.800000
vt 0.600000 0.000000
vt 0.600000 0.100000
vt 0.600000 0.200000
vt 0.600000 0.300000
vt 0.600000 0.400000
vt 0.600000 0.500000
vt 0.600000 0.600000
vt 0.600000 0.700000
vt 0.600000 0.800000
vt 0.700000 0.000000
vt 0.700000 0.100000
vt 0.700000 0.200000
vt 0.700000 0.300000
vt 0.700000 0.400000
vt 0.700000 0.500000
vt 0.700000 0.600000
vt 0.700000 0.700000
vt 0.700000 0.800000
vt 0.800000 0.000000
vt 0.800000 0.100000
vt 0.800000 0.300000
vt 0.800000 0.400000
vt 0.800000 0.500000
vt 0.800000 0.600000
vt 0.800000 0.700000
vt 0.800000 0.800000
vt 0.900000 0.000000
vt 0.900000 0.100000
vt 0.800000 0.200000
vt 0.900000 0.200000
vt 0.900000 0.300000
vt 0.900000 0.400000
vt 0.900000 0.500000
vt 0.900000 0.600000
vt 0.900000 0.700000
vt 0.900000 0.800000
vt 1.000000 0.000000
vt 1.000000 0.100000
vt 1.000000 0.200000
vt 1.000000 0.300000
vt 1.000000 0.400000
vt 1.000000 0.500000
vt 1.000000 0.600000
vt 1.000000 0.700000
vt 1.000000 0.800000
vt 1.000000 1.000000
vn 0.0000 1.0000 0.0000
vn -0.4146 0.9100 0.0000
vn 0.0000 0.9100 0.4146
vn 0.0000 0.9100 -0.4146
vn 0.4146 0.9100 0.0000
vn 0.3830 0.8406 -0.3830
vn 0.3830 0.8406 0.3830
vn -0.3830 0.8406 0.3830
vn -0.3830 0.8406 -0.3830
s off
f 31/1/1 32/2/1 121/3/1
f 49/4/1 3/5/1 5/6/1
f 58/7/1 40/8/1 49/4/1
f 67/9/1 39/10/1 58/7/1
f 76/11/1 38/12/1 67/9/1
f 85/13/1 37/14/1 76/11/1
f 94/15/1 36/16/1 85/13/1
f 103/17/1 35/18/1 94/15/1
f 112/19/1 34/20/1 103/17/1
f 121/3/1 33/21/1 112/19/1
f 14/22/1 13/23/1 1/24/1
f 41/25/1 12/26/1 13/23/1
f 42/27/1 11/28/1 12/26/1
f 43/29/1 10/30/1 11/28/1
f 44/31/1 9/32/1 10/30/1
f 45/33/1 8/34/1 9/32/1
f 46/35/1 7/36/1 8/34/1
f 47/37/1 6/38/1 7/36/1
f 48/39/1 5/6/1 6/38/1
f 15/40/1 41/25/1 14/22/1
f 50/41/1 42/27/1 41/25/1
f 51/42/1 43/29/1 42/27/1
f 52/43/2 44/31/2 43/29/2
f 53/44/2 45/33/2 44/31/2
f 54/45/2 46/35/2 45/33/2
f 46/35/1 56/46/1 47/37/1
f 56/46/1 48/39/1 47/37/1
f 57/47/1 49/4/1 48/39/1
f 16/48/1 50/41/1 15/40/1
f 59/49/1 51/42/1 50/41/1
f 60/50/3 52/43/3 51/42/3
f 61/51/1 53/44/1 52/43/1
f 62/52/1 54/45/1 53/44/1
f 63/53/1 55/54/1 54/45/1
f 64/55/4 56/46/4 55/54/4
f 65/56/1 57/47/1 56/46/1
f 66/57/1 58/7/1 57/47/1
f 17/58/1 59/49/1 16/48/1
f 68/59/1 60/50/1 59/49/1
f 69/60/3 61/51/3 60/50/3
f 70/61/1 62/52/1 61/51/1
f 71/62/1 63/53/1 62/52/1
f 72/63/5 64/55/5 63/53/5
f 73/64/6 65/56/6 64/55/6
f 74/65/1 66/57/1 65/56/1
f 75/66/1 67/9/1 66/57/1
f 18/67/1 68/59/1 17/58/1
f 77/68/1 69/60/1 68/59/1
f 78/69/3 70/61/3 69/60/3
f 79/70/1 71/62/1 70/61/1
f 80/71/4 72/63/4 71/62/4
f 81/72/1 73/64/1 72/63/1
f 82/73/1 74/65/1 73/64/1
f 83/74/1 75/66/1 74/65/1
f 84/75/1 76/11/1 75/66/1
f 19/76/1 77/68/1 18/67/1
f 86/77/1 78/69/1 77/68/1
f 87/78/3 79/70/3 78/69/3
f 88/79/1 80/71/1 79/70/1
f 89/80/4 81/72/4 80/71/4
f 90/81/1 82/73/1 81/72/1
f 91/82/1 83/74/1 82/73/1
f 92/83/1 84/75/1 83/74/1
f 93/84/1 85/13/1 84/75/1
f 20/85/1 86/77/1 19/76/1
f 95/86/1 87/78/1 86/77/1
f 96/87/3 88/79/3 87/78/3
f 97/88/1 89/80/1 88/79/1
f 98/89/4 90/81/4 89/80/4
f 99/90/1 91/82/1 90/81/1
f 100/91/1 92/83/1 91/82/1
f 101/92/1 93/84/1 92/83/1
f 102/93/1 94/15/1 93/84/1
f 21/94/1 95/86/1 20/85/1
f 104/95/1 96/87/1 95/86/1
f 96/87/7 106/96/7 97/88/7
f 106/96/5 98/89/5 97/88/5
f 107/97/6 99/90/6 98/89/6
f 108/98/1 100/91/1 99/90/1
f 109/99/1 101/92/1 100/91/1
f 110/100/1 102/93/1 101/92/1
f 111/101/1 103/17/1 102/93/1
f 22/102/1 104/95/1 21/94/1
f 113/103/1 105/104/1 104/95/1
f 114/105/1 106/96/1 105/104/1
f 115/106/1 107/97/1 106/96/1
f 116/107/1 108/98/1 107/97/1
f 117/108/1 109/99/1 108/98/1
f 118/109/1 110/100/1 109/99/1
f 119/110/1 111/101/1 110/100/1
f 120/111/1 112/19/1 111/101/1
f 2/112/1 113/103/1 22/102/1
f 23/113/1 114/105/1 113/103/1
f 24/114/1 115/106/1 114/105/1
f 25/115/1 116/107/1 115/106/1
f 26/116/1 117/108/1 116/107/1
f 27/117/1 118/109/1 117/108/1
f 28/118/1 119/110/1 118/109/1
f 29/119/1 120/111/1 119/110/1
f 30/120/1 121/3/1 120/111/1
f 31/1/1 4/121/1 32/2/1
f 49/4/1 40/8/1 3/5/1
f 58/7/1 39/10/1 40/8/1
f 67/9/1 38/12/1 39/10/1
f 76/11/1 37/14/1 38/12/1
f 85/13/1 36/16/1 37/14/1
f 94/15/1 35/18/1 36/16/1
f 103/17/1 34/20/1 35/18/1
f 112/19/1 33/21/1 34/20/1
f 121/3/1 32/2/1 33/21/1
f 14/22/1 41/25/1 13/23/1
f 41/25/1 42/27/1 12/26/1
f 42/27/1 43/29/1 11/28/1
f 43/29/1 44/31/1 10/30/1
f 44/31/1 45/33/1 9/32/1
f 45/33/1 46/35/1 8/34/1
f 46/35/1 47/37/1 7/36/1
f 47/37/1 48/39/1 6/38/1
f 48/39/1 49/4/1 5/6/1
f 15/40/1 50/41/1 41/25/1
f 50/41/1 51/42/1 42/27/1
f 51/42/8 52/43/8 43/29/8
f 52/43/2 53/44/2 44/31/2
f 53/44/2 54/45/2 45/33/2
f 54/45/2 55/54/2 46/35/2
f 46/35/9 55/54/9 56/46/9
f 56/46/1 57/47/1 48/39/1
f 57/47/1 58/7/1 49/4/1
f 16/48/1 59/49/1 50/41/1
f 59/49/1 60/50/1 51/42/1
f 60/50/3 61/51/3 52/43/3
f 61/51/1 62/52/1 53/44/1
f 62/52/1 63/53/1 54/45/1
f 63/53/1 64/55/1 55/54/1
f 64/55/4 65/56/4 56/46/4
f 65/56/1 66/57/1 57/47/1
f 66/57/1 67/9/1 58/7/1
f 17/58/1 68/59/1 59/49/1
f 68/59/1 69/60/1 60/50/1
f 69/60/3 70/61/3 61/51/3
f 70/61/1 71/62/1 62/52/1
f 71/62/6 72/63/6 63/53/6
f 72/63/5 73/64/5 64/55/5
f 73/64/1 74/65/1 65/56/1
f 74/65/1 75/66/1 66/57/1
f 75/66/1 76/11/1 67/9/1
f 18/67/1 77/68/1 68/59/1
f 77/68/1 78/69/1 69/60/1
f 78/69/3 79/70/3 70/61/3
f 79/70/1 80/71/1 71/62/1
f 80/71/4 81/72/4 72/63/4
f 81/72/1 82/73/1 73/64/1
f 82/73/1 83/74/1 74/65/1
f 83/74/1 84/75/1 75/66/1
f 84/75/1 85/13/1 76/11/1
f 19/76/1 86/77/1 77/68/1
f 86/77/1 87/78/1 78/69/1
f 87/78/3 88/79/3 79/70/3
f 88/79/1 89/80/1 80/71/1
f 89/80/4 90/81/4 81/72/4
f 90/81/1 91/82/1 82/73/1
f 91/82/1 92/83/1 83/74/1
f 92/83/1 93/84/1 84/75/1
f 93/84/1 94/15/1 85/13/1
f 20/85/1 95/86/1 86/77/1
f 95/86/1 96/87/1 87/78/1
f 96/87/3 97/88/3 88/79/3
f 97/88/1 98/89/1 89/80/1
f 98/89/4 99/90/4 90/81/4
f 99/90/1 100/91/1 91/82/1
f 100/91/1 101/92/1 92/83/1
f 101/92/1 102/93/1 93/84/1
f 102/93/1 103/17/1 94/15/1
f 21/94/1 104/95/1 95/86/1
f 104/95/1 105/104/1 96/87/1
f 96/87/1 105/104/1 106/96/1
f 106/96/5 107/97/5 98/89/5
f 107/97/1 108/98/1 99/90/1
f 108/98/1 109/99/1 100/91/1
f 109/99/1 110/100/1 101/92/1
f 110/100/1 111/101/1 102/93/1
f 111/101/1 112/19/1 103/17/1
f 22/102/1 113/103/1 104/95/1
f 113/103/1 114/105/1 105/104/1
f 114/105/1 115/106/1 106/96/1
f 115/106/1 116/107/1 107/97/1
f 116/107/1 117/108/1 108/98/1
f 117/108/1 118/109/1 109/99/1
f 118/109/1 119/110/1 110/100/1
f 119/110/1 120/111/1 111/101/1
f 120/111/1 121/3/1 112/19/1
f 2/112/1 23/113/1 113/103/1
f 23/113/1 24/114/1 114/105/1
f 24/114/1 25/115/1 115/106/1
f 25/115/1 26/116/1 116/107/1
f 26/116/1 27/117/1 117/108/1
f 27/117/1 28/118/1 118/109/1
f 28/118/1 29/119/1 119/110/1
f 29/119/1 30/120/1 120/111/1
f 30/120/1 31/1/1 121/3/1
