# Blender v2.82 (sub 7) OBJ File: ''
# www.blender.org
v -50.000000 9.360734 50.000000
v 50.000000 0.734355 50.000000
v 50.000000 3.977747 -50.000000
v -50.045513 13.092966 -35.724396
v -49.980198 4.805157 -30.045372
v -49.920586 -0.527279 -19.022219
v -50.000000 3.800905 -11.904757
v -50.000000 10.325092 -7.142853
v -50.709225 12.370632 -2.499888
v -50.000000 2.342563 7.142861
v -49.971737 -0.048836 15.869107
v -50.133942 9.689724 25.749794
v -50.000000 5.490901 30.952381
v -50.000000 0.524998 35.714287
v -50.000000 4.091247 40.476192
v -50.000000 5.757283 45.238094
v -45.315250 14.150665 50.016098
v -35.714283 0.962518 50.000000
v -26.934149 1.732418 50.310303
v -21.413963 0.035108 49.997261
v -7.142853 3.946882 50.000000
v -2.380948 5.798810 50.000000
v 2.380956 1.242957 50.000000
v 9.043288 0.227675 50.032497
v 45.142921 0.000399 49.999954
v 49.956570 0.710927 45.237545
v 49.983757 5.808819 32.439884
v 49.967224 2.497262 22.664339
v 49.951302 1.919759 12.093600
v 49.997177 0.025760 4.986682
v 50.040775 0.485243 -7.539117
v 50.000000 12.015007 -16.666670
v 50.083157 10.431492 -24.698763
v 50.108765 4.269495 -34.811214
v 50.000000 1.880514 -40.476192
v 50.000000 4.811147 -45.238094
v 38.419037 0.214662 -49.997162
v 2.380948 0.000000 -50.000000
v -2.380956 3.227308 -50.000000
v -7.675724 3.246053 -50.037888
v -13.036914 4.666126 -50.255974
v -30.952381 7.429941 -50.000000
v -35.714287 3.544571 -50.000000
v -40.937706 0.316085 -50.285763
v -49.978287 -0.232202 -49.809486
v -45.238094 10.912332 45.238094
v -45.016537 4.736304 38.427601
v -45.568409 7.007254 29.276209
v -43.770699 2.236575 17.538836
v -43.890514 -0.169587 7.873075
v -45.238094 1.460651 -26.190479
v -46.704834 14.157024 -35.762051
v -37.495556 0.030617 34.210514
v -40.801468 0.025305 20.823896
v -41.687912 3.506465 -0.705418
v -41.156597 3.013136 -7.520337
v -46.287464 0.366875 -18.103043
v -29.981022 0.062609 6.205914
v -36.400803 -0.017716 -5.684831
v -35.588493 6.432540 -14.775862
v -36.432213 0.013926 -28.553146
v -36.292805 4.637404 -35.467663
v -37.434116 3.649144 -41.373444
v -35.579586 4.453900 -46.212982
v -35.004276 2.050214 44.366947
v -33.898460 0.062272 -22.231735
v -30.892975 4.921838 -37.866676
v -25.182293 0.004126 44.207005
v -25.702759 -0.020557 10.036123
v -29.698069 0.717385 2.675960
v -30.033630 1.378116 -16.738983
v -18.828897 0.018642 -15.776203
v -26.175751 1.568282 -49.944725
v -23.269131 0.294858 15.031777
v -18.513514 2.193430 9.777762
v -22.540623 3.427259 -49.997040
v -19.207251 1.931621 -0.725455
v -23.653839 0.284552 -5.479849
v -27.378466 0.015697 -31.147877
v -16.074795 0.007356 -39.714256
v -16.666670 4.391886 -45.238094
v -11.904757 0.000000 11.904757
v -12.508893 8.278557 6.243368
v -11.844558 0.167316 49.965824
v -7.142858 3.889363 7.142853
v -11.454447 9.564210 3.278167
v -7.547407 1.439580 -3.495306
v -4.984436 0.018389 -8.262673
v -10.277937 0.094365 -25.339394
v -7.879486 0.021235 -40.510643
v -1.800159 0.561752 26.888393
v -5.306542 0.449370 15.423164
v -2.240169 4.842646 -44.121140
v 0.188254 0.148963 44.461800
v -0.478557 0.345826 40.033646
v -0.876341 0.167091 21.931149
v -0.443031 -0.049188 6.049585
v 2.380949 2.930049 -30.952381
v -1.339712 -0.000560 -33.271717
v 7.142858 4.401341 26.190472
v 3.050762 3.603916 15.964089
v 2.274909 0.205028 -24.982819
v 7.983205 3.217528 -34.008888
v 5.807391 0.853258 -43.601669
v 11.904765 3.193585 21.428566
v 9.652378 7.961799 16.269365
v 11.526937 7.067224 -38.226284
v 12.672893 -0.084962 -49.982834
v 12.853065 0.017385 29.167038
v 19.115856 8.296478 22.021297
v 16.254814 5.591546 12.140054
v 14.578999 -0.057432 4.051867
v 13.763947 0.199034 -2.760201
v 13.791618 0.233825 -20.308945
v 13.342132 2.709737 -28.899834
v 6.572943 0.038805 33.340591
v 20.866875 7.033976 16.836308
v 21.428576 9.883121 11.904757
v 21.727306 4.378274 6.735157
v 21.428576 6.309562 -2.380956
v 24.916729 8.147953 -5.989062
v 21.088821 0.015285 -29.307346
v 16.585648 2.977289 -38.181572
v 18.863127 0.056528 -44.899860
v 26.190479 0.000000 35.714283
v 26.478306 4.153665 30.894978
v 25.068756 7.845133 12.171222
v 27.395409 4.650054 4.225281
v 25.161160 1.056465 -14.468109
v 24.442432 0.094857 -39.339447
v 29.145910 5.795794 22.685888
v 34.559177 5.503600 21.225653
v 31.676273 0.127342 11.476859
v 34.934761 5.406948 -1.006424
v 27.528009 12.101102 -7.322994
v 30.952381 1.494484 -16.666670
v 28.663664 0.143895 -21.572258
v 26.985737 0.264284 -27.377773
v 33.445862 -0.163171 30.128424
v 37.369877 0.203499 14.007824
v 35.714287 8.410455 -7.142861
v 33.676723 5.367210 -13.215552
v 35.153320 6.034758 -17.278238
v 35.714287 2.016079 -26.190479
v 34.974369 0.022730 -32.157570
v 35.933575 0.414572 -36.497112
v 38.413170 0.180030 37.738083
v 40.476192 4.839977 21.428566
v 44.106541 1.760553 19.761393
v 40.525406 6.154400 -23.266823
v 40.400352 6.619347 -33.649471
v 40.584061 0.077698 -43.107246
v 50.022926 5.312863 40.476067
v 44.740959 6.478403 29.965345
v 45.238094 3.468952 11.904757
v 39.879120 0.002936 4.467079
v 41.587227 0.374957 -1.593721
v 42.132420 7.726054 -11.710327
v 42.589607 12.285017 -16.594393
v 45.777115 11.150851 -24.143970
v 45.464005 7.975077 -31.469643
v 45.905167 3.712350 -41.510689
vn -0.4924 0.8702 -0.0163
vn -0.5613 0.8090 -0.1743
vn -0.1102 0.8541 -0.5083
vn 0.3214 0.9240 0.2069
vn 0.3130 0.9127 0.2626
vn 0.1524 0.9821 0.1110
vn 0.0307 0.9938 0.1071
vn 0.2956 0.9193 -0.2597
vn -0.0083 0.9873 0.1582
vn -0.3746 0.9222 -0.0958
vn -0.1822 0.9832 0.0128
vn 0.1240 0.9796 -0.1583
vn -0.0811 0.9806 -0.1784
vn -0.2863 0.8580 -0.4264
vn 0.0317 0.9667 -0.2539
vn -0.6811 0.7198 0.1339
vn -0.3054 0.8253 0.4749
vn 0.4003 0.9084 0.1210
vn 0.3544 0.9323 -0.0716
vn 0.3877 0.8520 -0.3518
vn -0.0671 0.9406 -0.3326
vn 0.1468 0.9680 0.2033
vn 0.3829 0.8206 0.4242
vn 0.3308 0.9436 0.0099
vn 0.2846 0.7790 -0.5586
vn 0.6300 0.6883 -0.3597
vn 0.0951 0.9932 0.0664
vn -0.2738 0.9568 0.0972
vn -0.1122 0.6711 0.7328
vn 0.3781 0.9140 -0.1469
vn -0.0593 0.7935 -0.6057
vn 0.3044 0.9486 -0.0865
vn 0.3813 0.9193 -0.0967
vn -0.1122 0.9691 -0.2199
vn 0.1894 0.9259 0.3268
vn 0.1782 0.8635 0.4719
vn 0.4506 0.8728 0.1875
vn 0.3099 0.9438 0.1143
vn 0.1906 0.9807 -0.0432
vn 0.0505 0.9703 -0.2363
vn -0.1616 0.9843 0.0715
vn -0.0371 0.9949 0.0933
vn 0.3210 0.9413 -0.1039
vn 0.3913 0.8913 0.2288
vn 0.1443 0.9632 -0.2265
vn 0.1739 0.9765 -0.1274
vn 0.0870 0.9930 -0.0793
vn 0.0853 0.9945 -0.0608
vn -0.0436 0.9974 0.0567
vn -0.0618 0.9980 -0.0092
vn -0.2400 0.9403 -0.2414
vn -0.0515 0.9923 -0.1124
vn 0.1330 0.9804 0.1452
vn -0.0385 0.9662 0.2547
vn -0.0987 0.9766 -0.1909
vn -0.0201 0.9124 0.4088
vn -0.1522 0.8549 0.4959
vn -0.2306 0.9135 0.3352
vn 0.0339 0.9883 -0.1489
vn 0.2167 0.9035 -0.3697
vn 0.0169 0.9998 -0.0065
vn -0.0044 1.0000 -0.0038
vn -0.1321 0.9543 0.2678
vn -0.1558 0.9757 0.1541
vn -0.2862 0.9569 0.0476
vn 0.3782 0.7646 0.5218
vn 0.1737 0.9800 -0.0966
vn -0.0864 0.9887 0.1222
vn -0.1815 0.9821 0.0503
vn 0.3736 0.8707 -0.3199
vn 0.0767 0.9774 -0.1968
vn 0.0576 0.7121 -0.6997
vn 0.0333 0.9991 0.0243
vn 0.0193 0.9858 0.1668
vn -0.1364 0.9906 0.0115
vn 0.0354 0.9977 -0.0573
vn -0.0716 0.9787 -0.1921
vn 0.0299 0.9980 -0.0552
vn -0.2741 0.9398 -0.2037
vn -0.3846 0.9131 -0.1353
vn 0.0046 0.9975 0.0702
vn -0.3559 0.9244 0.1366
vn -0.3054 0.9499 0.0667
vn -0.3317 0.9342 -0.1308
vn -0.2365 0.9713 0.0264
vn -0.0037 0.9392 0.3432
vn -0.0069 0.9361 0.3517
vn -0.2933 0.8453 -0.4465
vn -0.2618 0.9643 -0.0386
vn 0.1228 0.9560 0.2662
vn -0.0204 0.9984 -0.0534
vn -0.2554 0.7942 -0.5514
vn -0.2679 0.9522 -0.1465
vn 0.1406 0.9873 0.0739
vn 0.4588 0.8851 -0.0782
vn -0.0755 0.9968 0.0240
vn 0.1071 0.9806 0.1643
vn -0.2324 0.9683 -0.0912
vn 0.0232 0.9732 0.2286
vn 0.1467 0.8342 0.5316
vn 0.0262 0.9987 0.0421
vn 0.3999 0.9011 -0.1673
vn -0.0642 0.9882 -0.1390
vn -0.0768 0.9970 -0.0105
vn 0.2122 0.9402 0.2664
vn 0.1247 0.9913 -0.0414
vn 0.4313 0.8941 -0.1207
vn 0.3605 0.8275 0.4304
vn -0.2973 0.9547 0.0056
vn -0.5795 0.8140 0.0409
vn -0.2658 0.8610 -0.4337
vn -0.2439 0.8984 -0.3652
vn -0.4471 0.8437 0.2970
vn -0.0216 0.9367 0.3495
vn 0.0097 0.9535 -0.3011
vn 0.3565 0.9286 0.1030
vn -0.5598 0.8175 -0.1350
vn -0.4894 0.8420 -0.2268
vn -0.4890 0.8499 -0.1961
vn -0.4053 0.9084 -0.1024
vn -0.0901 0.9959 0.0019
vn 0.0099 0.8445 0.5354
vn -0.5821 0.7653 -0.2747
vn -0.4623 0.8542 -0.2378
vn -0.3663 0.9184 -0.1491
vn -0.3723 0.8110 0.4513
vn 0.1228 0.9614 -0.2460
vn -0.1105 0.9733 -0.2012
vn -0.3497 0.9197 0.1785
vn -0.2602 0.9127 -0.3151
vn 0.1627 0.9835 -0.0786
vn 0.0605 0.9583 -0.2794
vn 0.2327 0.9708 -0.0587
vn -0.0108 0.9914 -0.1301
vn 0.3274 0.9020 0.2813
vn 0.2070 0.9655 0.1577
vn 0.2177 0.8506 0.4785
vn -0.0800 0.7239 -0.6852
vn 0.3190 0.9142 -0.2500
vn -0.1679 0.9085 0.3826
vn 0.1317 0.9800 0.1488
vn -0.3735 0.8340 0.4060
vn -0.6487 0.6150 -0.4483
vn -0.0113 0.8795 -0.4758
vn 0.0417 0.9560 -0.2904
vn -0.5665 0.6744 -0.4734
vn -0.0909 0.9904 -0.1035
vn 0.4038 0.8874 0.2222
vn -0.3262 0.5207 -0.7889
vn -0.0117 0.8417 0.5398
vn -0.0932 0.9671 0.2365
vn -0.4344 0.8866 0.1590
vn 0.1058 0.9940 -0.0283
vn 0.2658 0.8627 -0.4301
vn -0.0221 0.9427 -0.3330
vn -0.2425 0.9332 0.2652
vn 0.0961 0.9384 0.3318
vn -0.1494 0.9887 -0.0035
vn 0.1555 0.9312 -0.3295
vn 0.3999 0.8325 -0.3834
vn 0.4075 0.9132 0.0041
vn 0.6791 0.7200 0.1428
s 1
f 64//1 43//2 44//3
f 67//4 73//5 42//6
f 93//7 39//8 40//9
f 152//10 37//11 124//12
f 162//13 37//11 152//10
f 15//14 47//15 14//16
f 13//17 48//18 12//19
f 49//20 11//21 12//19
f 11//21 50//22 10//23
f 56//24 7//25 8//26
f 52//27 4//28 5//29
f 65//30 47//15 46//31
f 47//15 53//32 48//18
f 54//33 49//20 48//18
f 54//33 50//22 49//20
f 57//34 61//35 51//36
f 51//36 61//35 52//27
f 55//37 59//38 56//24
f 60//39 57//34 56//24
f 66//40 61//35 57//34
f 70//41 59//38 58//42
f 71//43 66//40 60//39
f 62//44 67//4 63//45
f 67//4 64//1 63//45
f 19//46 68//47 65//30
f 20//48 68//47 19//46
f 74//49 69//50 58//42
f 77//51 78//52 70//41
f 79//53 80//54 73//5
f 84//55 68//47 20//48
f 82//56 83//57 75//58
f 86//59 87//60 77//51
f 72//61 89//62 79//53
f 79//53 90//63 80//54
f 92//64 82//56 96//65
f 85//66 97//67 86//59
f 97//67 87//60 86//59
f 102//68 99//69 89//62
f 23//70 94//71 22//72
f 95//73 116//74 91//75
f 88//76 102//68 89//62
f 99//69 104//77 93//7
f 24//78 94//71 23//70
f 106//79 101//80 96//65
f 88//76 114//81 102//68
f 102//68 103//82 98//83
f 98//83 103//82 99//69
f 3//84 162//13 36//85
f 116//74 109//86 100//87
f 106//79 111//88 101//80
f 113//89 88//76 97//67
f 115//90 103//82 102//68
f 103//82 107//91 104//77
f 111//88 119//92 112//93
f 114//81 122//94 115//90
f 115//90 123//95 107//91
f 25//96 116//74 24//78
f 119//92 128//97 112//93
f 137//98 122//94 114//81
f 125//99 126//100 109//86
f 117//101 127//102 118//103
f 137//98 138//104 122//94
f 131//105 132//106 127//102
f 133//107 128//97 127//102
f 134//108 135//109 121//110
f 135//109 142//111 129//112
f 147//113 139//114 25//96
f 140//115 133//107 132//106
f 134//108 141//116 135//109
f 141//116 142//111 135//109
f 142//111 143//117 136//118
f 136//118 143//117 137//98
f 144//119 145//120 138//104
f 154//121 132//106 139//114
f 141//116 158//122 142//111
f 143//117 150//123 144//119
f 145//120 151//124 146//125
f 153//126 154//121 147//113
f 149//127 155//128 140//115
f 159//129 160//130 150//123
f 153//126 27//131 154//121
f 28//132 149//127 154//121
f 149//127 29//133 155//128
f 29//133 30//134 155//128
f 30//134 157//135 156//136
f 157//135 31//137 158//122
f 64//1 42//6 43//2
f 4//28 44//3 45//138
f 93//7 38//139 39//8
f 81//140 41//141 76//142
f 81//140 40//9 41//141
f 46//31 1//143 17//144
f 104//77 108//145 38//139
f 124//12 37//11 108//145
f 47//15 16//146 46//31
f 13//17 47//15 48//18
f 55//37 10//23 50//22
f 48//18 49//20 12//19
f 11//21 49//20 50//22
f 8//26 55//37 56//24
f 7//25 57//34 6//147
f 51//36 6//147 57//34
f 44//3 63//45 64//1
f 51//36 52//27 5//29
f 4//28 52//27 44//3
f 17//144 65//30 46//31
f 53//32 54//33 48//18
f 50//22 54//33 58//42
f 50//22 58//42 55//37
f 52//27 61//35 62//44
f 62//44 63//45 52//27
f 71//43 59//38 72//61
f 17//144 18//148 65//30
f 65//30 53//32 47//15
f 58//42 59//38 55//37
f 56//24 59//38 60//39
f 57//34 60//39 66//40
f 18//148 19//46 65//30
f 65//30 68//47 53//32
f 53//32 58//42 54//33
f 58//42 69//50 70//41
f 70//41 78//52 59//38
f 78//52 72//61 59//38
f 62//44 79//53 67//4
f 66//40 79//53 61//35
f 77//51 69//50 75//58
f 71//43 72//61 66//40
f 72//61 79//53 66//40
f 67//4 79//53 73//5
f 53//32 74//49 58//42
f 69//50 74//49 75//58
f 77//51 83//57 86//59
f 80//54 76//142 73//5
f 82//56 74//49 96//65
f 80//54 81//140 76//142
f 84//55 53//32 68//47
f 53//32 96//65 74//49
f 78//52 87//60 88//76
f 72//61 88//76 89//62
f 81//140 90//63 40//9
f 79//53 89//62 99//69
f 99//69 90//63 79//53
f 85//66 82//56 92//64
f 84//55 95//73 53//32
f 95//73 91//75 53//32
f 91//75 96//65 53//32
f 94//71 21//149 22//72
f 83//57 85//66 86//59
f 90//63 93//7 40//9
f 116//74 94//71 24//78
f 84//55 94//71 95//73
f 96//65 101//80 92//64
f 85//66 92//64 97//67
f 97//67 88//76 87//60
f 99//69 93//7 90//63
f 92//64 101//80 97//67
f 102//68 98//83 99//69
f 96//65 100//87 106//79
f 116//74 100//87 91//75
f 105//150 100//87 109//86
f 101//80 112//93 97//67
f 99//69 103//82 104//77
f 106//79 110//151 117//101
f 101//80 111//88 112//93
f 97//67 112//93 113//89
f 113//89 114//81 88//76
f 114//81 115//90 102//68
f 115//90 107//91 103//82
f 104//77 107//91 108//145
f 109//86 110//151 105//150
f 108//145 123//95 124//12
f 106//79 117//101 111//88
f 112//93 120//152 113//89
f 126//100 110//151 109//86
f 117//101 118//103 111//88
f 111//88 118//103 119//92
f 114//81 129//112 137//98
f 113//89 120//152 121//110
f 113//89 121//110 129//112
f 123//95 122//94 130//153
f 116//74 125//99 109//86
f 117//101 131//105 127//102
f 126//100 131//105 110//151
f 119//92 127//102 128//97
f 124//12 130//153 152//10
f 128//97 121//110 120//152
f 121//110 135//109 129//112
f 122//94 138//104 130//153
f 139//114 125//99 25//96
f 134//108 128//97 133//107
f 126//100 139//114 131//105
f 132//106 133//107 127//102
f 130//153 145//120 146//125
f 129//112 142//111 136//118
f 129//112 136//118 137//98
f 144//119 137//98 143//117
f 130//153 146//125 152//10
f 139//114 132//106 131//105
f 133//107 140//115 156//136
f 133//107 156//136 134//108
f 140//115 148//154 149//127
f 147//113 154//121 139//114
f 154//121 148//154 132//106
f 141//116 157//135 158//122
f 140//115 30//134 156//136
f 134//108 156//136 157//135
f 143//117 158//122 159//129
f 151//124 144//119 150//123
f 143//117 159//129 150//123
f 161//155 150//123 160//130
f 146//125 151//124 152//10
f 25//96 26//156 147//113
f 154//121 149//127 148//154
f 140//115 155//128 30//134
f 162//13 151//124 161//155
f 32//157 158//122 31//137
f 25//96 2//158 26//156
f 26//156 153//126 147//113
f 27//131 28//132 154//121
f 149//127 28//132 29//133
f 157//135 30//134 31//137
f 160//130 32//157 33//159
f 161//155 33//159 34//160
f 162//13 34//160 35//161
f 162//13 35//161 36//85
f 3//84 37//11 162//13
f 64//1 67//4 42//6
f 93//7 104//77 38//139
f 46//31 16//146 1//143
f 47//15 15//14 16//146
f 13//17 14//16 47//15
f 55//37 9//162 10//23
f 8//26 9//162 55//37
f 7//25 56//24 57//34
f 51//36 5//29 6//147
f 44//3 52//27 63//45
f 71//43 60//39 59//38
f 62//44 61//35 79//53
f 77//51 70//41 69//50
f 77//51 75//58 83//57
f 82//56 75//58 74//49
f 78//52 77//51 87//60
f 72//61 78//52 88//76
f 81//140 80//54 90//63
f 85//66 83//57 82//56
f 94//71 84//55 21//149
f 116//74 95//73 94//71
f 96//65 91//75 100//87
f 105//150 106//79 100//87
f 106//79 105//150 110//151
f 108//145 107//91 123//95
f 112//93 128//97 120//152
f 114//81 113//89 129//112
f 123//95 115//90 122//94
f 116//74 25//96 125//99
f 117//101 110//151 131//105
f 119//92 118//103 127//102
f 124//12 123//95 130//153
f 139//114 126//100 125//99
f 134//108 121//110 128//97
f 130//153 138//104 145//120
f 144//119 138//104 137//98
f 140//115 132//106 148//154
f 141//116 134//108 157//135
f 143//117 142//111 158//122
f 151//124 145//120 144//119
f 161//155 151//124 150//123
f 162//13 152//10 151//124
f 32//157 159//129 158//122
f 160//130 159//129 32//157
f 161//155 160//130 33//159
f 162//13 161//155 34//160
